<mxfile host="65bd71144e">
    <diagram id="v0yFKleXn0R9elcSyAVT" name="Page-1">
        <mxGraphModel dx="985" dy="771" grid="1" gridSize="10" guides="1" tooltips="1" connect="1" arrows="1" fold="1" page="1" pageScale="1" pageWidth="827" pageHeight="1169" math="0" shadow="0">
            <root>
                <mxCell id="0"/>
                <mxCell id="1" parent="0"/>
                <mxCell id="2" value="" style="shape=image;verticalLabelPosition=bottom;labelBackgroundColor=#ffffff;verticalAlign=top;aspect=fixed;imageAspect=0;image=data:image/png,iVBORw0KGgoAAAANSUhEUgAABYgAAAVzCAIAAADv4l46AAAMa2lDQ1BJQ0MgUHJvZmlsZQAASImVVwdYU8kWnltSSWiBCEgJvQkivUgJoQUQkCrYCEkgocSYEFRsWBYVXLuIYEVXRRRdXQFZVMReFsXeFwsqyrqoi6KovAkJ6LqvfO9839z575kz/yl35t47AGj18qTSXFQbgDxJviw+PJg1LjWNRXoGEEAGGsAW6PD4cik7Li4aQBns/y7vbkBrKFedlFz/HP+voisQyvkAIBMgzhDI+XkQNwOAb+BLZfkAEJV6y2n5UiUuglhPBgOEeI0SZ6nwLiXOUOGmAZvEeA7ElwEg03g8WRYAmvegnlXAz4I8mp8gdpEIxBIAtEZAHMAX8QQQK2MfkZc3RYnLIbaD9lKIYTzAO+Mbzqy/8WcM8fN4WUNYldeAkEPEcmkub8b/WZr/LXm5ikEfNrDRRLKIeGX+sIa3cqZEKTEN4i5JRkysstYQ94oFqroDgFJFiogklT1qzJdzYP0AE2IXAS8kCmJjiMMkuTHRan1GpjiMCzFcLeh0cT43EWIDiBcL5aEJapstsinxal9oXaaMw1brz/JkA36Vvh4ocpLYav43IiFXzY9pFooSUyCmQmxVIE6OgVgTYmd5TkKU2mZ0oYgTM2gjU8Qr47eCOF4oCQ9W8WMFmbKweLV9SZ58MF9si0jMjVHjA/mixAhVfbCTfN5A/DAX7LJQwk4a5BHKx0UP5iIQhoSqcseeCyVJCWqeXml+cLxqLk6V5sap7XELYW64Um8Bsbu8IEE9F0/Oh4tTxY9nSvPjElVx4oXZvMg4VTz4ChANOCAEsIACtgwwBWQDcWtXfRe8U42EAR6QgSwgBE5qzeCMlIERCbwmgELwB0RCIB+aFzwwKgQFUP95SKu6OoHMgdGCgRk54CnEeSAK5MJ7xcAsyZC3ZPAEasT/8M6DjQ/jzYVNOf7v9YParxo21ESrNYpBjyytQUtiKDGEGEEMI9rjRngA7odHw2sQbK64N+4zmMdXe8JTQhvhEeE6oZ1we7J4vuy7KMeAdsgfpq5Fxre1wG0gpwcejPtDdsiMM3Ej4IS7Qz9sPBB69oBajjpuZVVY33H/LYNvnobajuJCQSnDKEEUu+9najpoegyxKGv9bX1UsWYM1ZszNPK9f8431RfAPup7S2wxdhA7gx3HzmFNWD1gYcewBuwidkSJh1bXk4HVNegtfiCeHMgj/oe/wSerrKTcpcal0+WTaixfOD1fufE4U6QzZOIsUT6LDb8OQhZXwncewXJ1cXUDQPmtUb2+3jIHviEI8/xX3QJzAPxn9Pf3N33VRcF37sEjcPvf+aqz7YCvifMAnF3HV8gKVDpceSHAt4QW3GmGwBRYAjuYjyvwBH4gCISCSBALEkEqmASjF8F1LgPTwCwwDxSDUrACrAUVYDPYBnaBveAAqAdN4Dg4DS6Ay+A6uAtXTwd4CbrBO9CHIAgJoSMMxBAxQ6wRR8QV8UYCkFAkGolHUpF0JAuRIApkFrIAKUVWIRXIVqQa+Rk5jBxHziFtyG3kIdKJvEE+ohhKQ/VQE9QGHYl6o2w0Ck1EJ6JZ6FS0EF2ILkPL0Sp0D1qHHkcvoNfRdvQl2oMBTANjYuaYE+aNcbBYLA3LxGTYHKwEK8OqsFqsET7nq1g71oV9wIk4A2fhTnAFR+BJOB+fis/Bl+IV+C68Dj+JX8Uf4t34FwKdYExwJPgSuIRxhCzCNEIxoYywg3CIcArupQ7COyKRyCTaEr3gXkwlZhNnEpcSNxL3EZuJbcTHxB4SiWRIciT5k2JJPFI+qZi0nrSHdIx0hdRB6iVrkM3IruQwchpZQp5PLiPvJh8lXyE/I/dRtCnWFF9KLEVAmUFZTtlOaaRconRQ+qg6VFuqPzWRmk2dRy2n1lJPUe9R32poaFho+GiM1RBrFGmUa+zXOKvxUOMDTZfmQOPQJtAUtGW0nbRm2m3aWzqdbkMPoqfR8+nL6NX0E/QH9F5NhqazJldToDlXs1KzTvOK5istipa1FltrklahVpnWQa1LWl3aFG0bbY42T3uOdqX2Ye2b2j06DJ1ROrE6eTpLdXbrnNN5rkvStdEN1RXoLtTdpntC9zEDY1gyOAw+YwFjO+MUo0OPqGerx9XL1ivV26vXqtetr6vvrp+sP12/Uv+IfjsTY9owucxc5nLmAeYN5sdhJsPYw4TDlgyrHXZl2HuD4QZBBkKDEoN9BtcNPhqyDEMNcwxXGtYb3jfCjRyMxhpNM9pkdMqoa7jecL/h/OElww8Mv2OMGjsYxxvPNN5mfNG4x8TUJNxEarLe5IRJlynTNMg023SN6VHTTjOGWYCZ2GyN2TGzFyx9FpuVyypnnWR1mxubR5grzLeat5r3WdhaJFnMt9hncd+SaultmWm5xrLFstvKzGqM1SyrGqs71hRrb2uR9TrrM9bvbWxtUmwW2dTbPLc1sOXaFtrW2N6zo9sF2k21q7K7Zk+097bPsd9of9kBdfBwEDlUOlxyRB09HcWOGx3bRhBG+IyQjKgacdOJ5sR2KnCqcXrozHSOdp7vXO/8aqTVyLSRK0eeGfnFxcMl12W7y91RuqMiR80f1TjqjauDK9+10vWaG90tzG2uW4Pba3dHd6H7JvdbHgyPMR6LPFo8Pnt6eco8az07vay80r02eN301vOO817qfdaH4BPsM9enyeeDr6dvvu8B3z/9nPxy/Hb7PR9tO1o4evvox/4W/jz/rf7tAayA9IAtAe2B5oG8wKrAR0GWQYKgHUHP2PbsbPYe9qtgl2BZ8KHg9xxfzmxOcwgWEh5SEtIaqhuaFFoR+iDMIiwrrCasO9wjfGZ4cwQhIipiZcRNrgmXz63mdkd6Rc6OPBlFi0qIqoh6FO0QLYtuHIOOiRyzesy9GOsYSUx9LIjlxq6OvR9nGzc17texxLFxYyvHPo0fFT8r/kwCI2Fywu6Ed4nBicsT7ybZJSmSWpK1kickVye/TwlJWZXSPm7kuNnjLqQapYpTG9JIaclpO9J6xoeOXzu+Y4LHhOIJNybaTpw+8dwko0m5k45M1prMm3wwnZCekr47/RMvllfF68ngZmzI6OZz+Ov4LwVBgjWCTqG/cJXwWaZ/5qrM51n+WauzOkWBojJRl5gjrhC/zo7I3pz9Pic2Z2dOf25K7r48cl563mGJriRHcnKK6ZTpU9qkjtJiaftU36lrp3bLomQ75Ih8orwhXw/+1F9U2Cl+UDwsCCioLOidljzt4HSd6ZLpF2c4zFgy41lhWOFPM/GZ/Jkts8xnzZv1cDZ79tY5yJyMOS1zLecunNtRFF60ax51Xs683+a7zF81/68FKQsaF5osLFr4+IfwH2qKNYtlxTcX+S3avBhfLF7cusRtyfolX0oEJedLXUrLSj8t5S89/+OoH8t/7F+Wuax1uefyTSuIKyQrbqwMXLlrlc6qwlWPV49ZXbeGtaZkzV9rJ689V+ZetnkddZ1iXXt5dHnDeqv1K9Z/qhBVXK8Mrty3wXjDkg3vNwo2XtkUtKl2s8nm0s0ft4i33NoavrWuyqaqbBtxW8G2p9uTt5/5yfun6h1GO0p3fN4p2dm+K37XyWqv6urdxruX16A1iprOPRP2XN4bsreh1ql26z7mvtL9YL9i/4uf03++cSDqQMtB74O1v1j/suEQ41BJHVI3o667XlTf3pDa0HY48nBLo1/joV+df93ZZN5UeUT/yPKj1KMLj/YfKzzW0yxt7jqedfxxy+SWuyfGnbh2cuzJ1lNRp86eDjt94gz7zLGz/mebzvmeO3ze+3z9Bc8LdRc9Lh76zeO3Q62erXWXvC41XPa53Ng2uu3olcArx6+GXD19jXvtwvWY6203km7cujnhZvstwa3nt3Nvv75TcKfvbtE9wr2S+9r3yx4YP6j63f73fe2e7Ucehjy8+Cjh0d3H/Mcvn8iffOpY+JT+tOyZ2bPq567PmzrDOi+/GP+i46X0ZV9X8R86f2x4Zffqlz+D/rzYPa6747Xsdf+bpW8N3+78y/2vlp64ngfv8t71vS/pNezd9cH7w5mPKR+f9U37RPpU/tn+c+OXqC/3+vP6+6U8GW/gVwCDDc3MBODNTgDoqQAw4D8EdbzqLDggiOr8OoDAf8Kq8+KAeAJQCzvlbzynGYD9sNkUQW7YK3/hE4MA6uY21NQiz3RzVXHR4EmI0Nvf/9YEAFIjAJ9l/f19G/v7P2+Hwd4GoHmq6gyqFCI8M2wJUaLbqycWge9EdT79Jsfve6CMwB183/8LVXORcFmlyxkAAAA4ZVhJZk1NACoAAAAIAAGHaQAEAAAAAQAAABoAAAAAAAKgAgAEAAAAAQAABYigAwAEAAAAAQAABXMAAAAANvWzCgAAQABJREFUeAHs3WmsHlUBN/C3gDa1skgVCwJaltbg8qGaYABBDS4tIAmCAiIoGI2yiJpqFA1LxA0kQCGiQDAR8DUQZK8YJIXXWkEWDZRoJVaslB2KUhoXet+jk4zPee69T++59/TMPM7vfihzzszZfme+8M/MPNNGRkb+jz8CBAgQIECAAAECBAgQIECAQBMCmzUxqDEJECBAgAABAgQIECBAgAABAv8WEEy4DwgQIECAAAECBAgQIECAAIHGBAQTjdEbmAABAgQIECBAgAABAgQIEBBMRPfAiSeeeMEFF1RVixcvPumkk6LTCgQIECBAgAABAgQIECBAgEBWgS2y9jbcnYVU4pb//IVlhG+ChmAiHIRs4vzzzx/uhZk9AQIECBAgQIAAAQIECBBoq8A0v8pRbU2VSoy5Te973/tkE2PKqCRAgAABAgQIECBAgAABAlMU8CrHvwEHpBLh7E9/+lPvdEzxPtOcAAECBAgQIECAAAECBAiMKSCY2EgqUanJJsa8e1QSIECAAAECBAgQIECAAIEpCnQ9mBj8rEQvrmyiV8MxAQIECBAgQIAAAQIECBDIItDpYGLiqURlLZvIcs/phAABAgQIECBAgAABAgQI1ALdDSZSU4mKTDZR3zoOCBAgQIAAAQIECBAgQIDA1AU6GkxMLpWouGUTU7/t9ECAAAECBAgQIECAAAECBCqBLgYT46US733ve0ffFu95z3tGV8omRpuoIUCAAAECBAgQIECAAAECkxDoXDAxIJVYvHjxaMELLrhANjGaRQ0BAgQIECBAgAABAgQIEMgi0K1gIjWVqIhlE1luNZ0QIECAAAECBAgQIECAAIHRAh0KJiaXSlRksonRt44aAgQIECBAgAABAgQIECAwdYGuBBNTSSUqZdnE1O82PRAgQIAAAQIECBAgQIAAgT6BTgQTU08lKjXZRN/do0iAAAECBAgQIECAAAECBKYo0IlgYvfddx/NFH6DY8yvXY6+srdmvGxizCF6GzomQIAAAQIECBAgQIAAAQIERgt0Ipg46aSTTjjhhN7FTy6VqHoYnU2EJzLCX2//jgkQIECAAAECBAgQIECAAIGJCHQimAgQvdnEVFKJyrQ3m5BKTOQ+cw0BAgQIECBAgAABAgQIEBhTYNrIyMiYJ/4nK88///w//OEPA97gmDt3bt/CV65c2VdTF8NTGPPmzfOsRA3igAABAgQIECBAgAABAgQIpAp0K5jYqE5SMLHR3lxAgAABAgQIECBAgAABAgQIDBboyqscgxWcJUCAAAECBAgQIECAAAECBBoREEw0wm5QAgQIECBAgAABAgQIECBA4N8Cggn3AQECBAgQIECAAAECBAgQINCYgGCiMXoDEyBAgAABAgQIECBAgAABAoIJ9wABAgQIECBAgAABAgQIECDQmIBgojF6AxMgQIAAAQIECBAgQIAAAQKCCfcAAQIECBAgQIAAAQIECBAg0JiAYKIxegMTIECAAAECBAgQIECAAAECggn3AAECBAgQIECAAAECBAgQINCYgGCiMXoDEyBAgAABAgQIECBAgAABAoIJ9wABAgQIECBAgAABAgQIECDQmIBgojF6AxMgQIAAAQIECBAgQIAAAQKCCfcAAQIECBAgQIAAAQIECBAg0JiAYKIxegMTIECAAAECBAgQIECAAAECggn3AAECBAgQIECAAAECBAgQINCYgGCiMXoDEyBAgAABAgQIECBAgAABAoIJ9wABAgQIECBAgAABAgQIECDQmIBgojF6AxMgQIAAAQIECBAgQIAAAQKCCfcAAQIECBAgQIAAAQIECBAg0JiAYKIxegMTIECAAAECBAgQIECAAAECggn3AAECBAgQIECAAAECBAgQINCYgGCiMXoDEyBAgAABAgQIECBAgAABAoIJ9wABAgQIECBAgAABAgQIECDQmIBgojF6AxMgQIAAAQIECBAgQIAAAQKCCfcAAQIECBAgQIAAAQIECBAg0JiAYKIxegMTIECAAAECBAgQIECAAAECggn3AAECBAgQIECAAAECBAgQINCYgGCiMXoDEyBAgAABAgQIECBAgAABAoIJ9wABAgQIECBAgAABAgQIECDQmIBgojF6AxMgQIAAAQIECBAgQIAAAQKCCfcAAQIECBAgQIAAAQIECBAg0JiAYKIxegMTIECAAAECBAgQIECAAAECggn3AAECBAgQIECAAAECBAgQINCYgGCiMXoDEyBAgAABAgQIECBAgAABAoIJ9wABAgQIECBAgAABAgQIECDQmIBgojF6AxMgQIAAAQIECBAgQIAAAQKCCfcAAQIECBAgQIAAAQIECBAg0JiAYKIxegMTIECAAAECBAgQIECAAAECggn3AAECBAgQIECAAAECBAgQINCYgGCiMXoDEyBAgAABAgQIECBAgAABAoIJ9wABAgQIECBAgAABAgQIECDQmIBgojF6AxMgQIAAAQIECBAgQIAAAQKCCfcAAQIECBAgQIAAAQIECBAg0JiAYKIxegMTIECAAAECBAgQIECAAAECggn3AAECBAgQIECAAAECBAgQINCYgGCiMXoDEyBAgAABAgQIECBAgAABAoIJ9wABAgQIECBAgAABAgQIECDQmIBgojF6AxMgQIAAAQIECBAgQIAAAQKCCfcAAQIECBAgQIAAAQIECBAg0JiAYKIxegMTIECAAAECBAgQIECAAAECggn3AAECBAgQIECAAAECBAgQINCYgGCiMXoDEyBAgAABAgQIECBAgAABAoIJ9wABAgQIECBAgAABAgQIECDQmIBgojF6AxMgQIAAAQIECBAgQIAAAQKCCfcAAQIECBAgQIAAAQIECBAg0JiAYKIxegMTIECAAAECBAgQIECAAAECggn3AAECBAgQIECAAAECBAgQINCYgGCiMXoDEyBAgAABAgQIECBAgAABAoIJ9wABAgQIECBAgAABAgQIECDQmIBgojF6AxMgQIAAAQIECBAgQIAAAQKCCfcAAQIECBAgQIAAAQIECBAg0JiAYKIxegMTIECAAAECBAgQIECAAAECggn3AAECBAgQIECAAAECBAgQINCYgGCiMXoDEyBAgAABAgQIECBAgAABAoIJ9wABAgQIECBAgAABAgQIECDQmIBgojF6AxMgQIAAAQIECBAgQIAAAQKCCfcAAQIECBAgQIAAAQIECBAg0JiAYKIxegMTIECAAAECBAgQIECAAAECggn3AAECBAgQIECAAAECBAgQINCYgGCiMXoDEyBAgAABAgQIECBAgAABAoIJ9wABAgQIECBAgAABAgQIECDQmIBgojF6AxMgQIAAAQIECBAgQIAAAQKCCfcAAQIECBAgQIAAAQIECBAg0JiAYKIxegMTIECAAAECBAgQIECAAAECggn3AAECBAgQIECAAAECBAgQINCYgGCiMXoDEyBAgAABAgQIECBAgAABAoIJ9wABAgQIECBAgAABAgQIECDQmIBgojF6AxMgQIAAAQIECBAgQIAAAQKCCfcAAQIECBAgQIAAAQIECBAg0JiAYKIxegMTIECAAAECBAgQIECAAAECggn3AAECBAgQIECAAAECBAgQINCYgGCiMXoDEyBAgAABAgQIECBAgAABAoIJ9wABAgQIECBAgAABAgQIECDQmIBgojF6AxMgQIAAAQIECBAgQIAAAQKCCfcAAQIECBAgQIAAAQIECBAg0JiAYKIxegMTIECAAAECBAgQIECAAAECggn3AAECBAgQIECAAAECBAgQINCYgGCiMXoDEyBAgAABAgQIECBAgAABAoIJ9wABAgQIECBAgAABAgQIECDQmIBgojF6AxMgQIAAAQIECBAgQIAAAQKCCfcAAQIECBAgQIAAAQIECBAg0JiAYKIxegMTIECAAAECBAgQIECAAAECggn3AAECBAgQIECAAAECBAgQINCYgGCiMXoDEyBAgAABAgQIECBAgAABAoIJ9wABAgQIECBAgAABAgQIECDQmIBgojF6AxMgQIAAAQIECBAgQIAAAQJbDC/BE088MTIystVWW82YMWN4V2HmBAgQIECAAAECBAgQIECgywJD+cTEv/71r69+9av77LPP29/+9hNOOKHL+2ftBAgQIECAAAECBAgQIEBgqAWG74mJ55577uSTT162bFnlvm7duqHeAJMnQIAAAQIECBAgQIAAAQJdFhimJybCixvLly//4Ac/WKcSXd45aydAgAABAgQIECBAgAABAv8DAsPxxMT69etvvPHGSy65ZNWqVf8D6JZAgAABAgQIECBAgAABAgQIVALDEUx861vfuvLKK+s9mz179qxZs1asWFHXOCBAgAABAgQIECBAgAABAgSGUWCYXuWofBcuXHjDDTfstddew8htzgQIECBAgAABAgQIECBAgECvwHA8MVHNeP/99z/yyCPDj3H0LsAxAQIECBAgQIAAAQIECBAgMLwCwxFMvP/97//EJz6xww47DC+0mRMgQIAAAQIECBAgQIAAAQKjBYYjmJg/f/7oqashQIAAAQIECBAgQIAAAQIEhl1g+L4xMezi5k+AAAECBAgQIECAAAECBAjUAoKJmsIBAQIECBAgQIAAAQIECBAgUFpgOF7l2EQqc+fO3UQ965YAAQIECBAgQIAAAQIECBCYiIAnJiai5BoCBAgQIECAAAECBAgQIEBgkwgIJjYJq04JECBAgAABAgQIECBAgACBiQgIJiai5BoCBAgQIECAAAECBAgQIEBgkwgIJjYJq04JECBAgAABAgQIECBAgACBiQgIJiai5BoCBAgQIECAAAECBAgQIEBgkwh0+lc5Vq5c2Yfqdzr6QBQJECBAgAABAgQIECBAgMAmFfDExCbl1TkBAgQIECBAgAABAgQIECAwSEAwMUjHOQIECBAgQIAAAQIECBAgQGCTCggmNimvzgkQIECAAAECBAgQIECAAIFBAoKJQTrOESBAgAABAgQIECBAgAABAptUQDCxSXl1ToAAAQIECBAgQIAAAQIECAwSEEwM0nGOAAECBAgQIECAAAECBAgQ2KQCgolNyqtzAgQIECBAgAABAgQIECBAYJCAYGKQjnMECBAgQIAAAQIECBAgQIDAJhWYNjIyskkHGK7O586d2zfhlStX9tUoEiBAgAABAgQIECBAgAABArkEPDGRS1I/BAgQIECAAAECBAgQIECAQLKAYCKZTAMCBAgQIECAAAECBAgQIEAgl4BgIpekfggQIECAAAECBAgQIECAAIFkAcFEMpkGBAgQIECAAAECBAgQIECAQC4BwUQuSf0QIECAAAECBAgQIECAAAECyQKCiWQyDQgQIECAAAECBAgQIECAAIFcAoKJXJL6IUCAAAECBAgQIECAAAECBJIFBBPJZBoQIECAAAECBAgQIECAAAECuQQEE7kk9UOAAAECBAgQIECAAAECBAgkCwgmksk0IECAAAECBAgQIECAAAECBHIJCCZySeqHAAECBAgQIECAAAECBAgQSBYQTCSTaUCAAAECBAgQIECAAAECBAjkEhBM5JLUDwECBAgQIECAAAECBAgQIJAsIJhIJtOAAAECBAgQIECAAAECBAgQyCUgmMglqR8CBAgQIECAAAECBAgQIEAgWUAwkUymAQECBAgQIECAAAECBAgQIJBLQDCRS1I/BAgQIECAAAECBAgQIECAQLKAYCKZTAMCBAgQIECAAAECBAgQIEAgl4BgIpekfggQIECAAAECBAgQIECAAIFkAcFEMpkGBAgQIECAAAECBAgQIECAQC4BwUQuSf0QIECAAAECBAgQIECAAAECyQKCiWQyDQgQIECAAAECBAgQIECAAIFcAoKJXJL6IUCAAAECBAgQIECAAAECBJIFBBPJZBoQIECAAAECBAgQIECAAAECuQQEE7kk9UOAAAECBAgQIECAAAECBAgkCwgmksk0IECAAAECBAgQIECAAAECBHIJCCZySeqHAAECBAgQIECAAAECBAgQSBYQTCSTaUCAAAECBAgQIECAAAECBAjkEhBM5JLUDwECBAgQIECAAAECBAgQIJAsIJhIJtOAAAECBAgQIECAAAECBAgQyCUgmMglqR8CBAgQIECAAAECBAgQIEAgWUAwkUymAQECBAgQIECAAAECBAgQIJBLQDCRS1I/BAgQIECAAAECBAgQIECAQLKAYCKZTAMCBAgQIECAAAECBAgQIEAgl4BgIpekfggQIECAAAECBAgQIECAAIFkAcFEMpkGBAgQIECAAAECBAgQIECAQC4BwUQuSf0QIECAAAECBAgQIECAAAECyQKCiWQyDQgQIECAAAECBAgQIECAAIFcAoKJXJL6IUCAAAECBAgQIECAAAECBJIFBBPJZBoQIECAAAECBAgQIECAAAECuQQEE7kk9UOAAAECBAgQIECAAAECBAgkCwgmksk0IECAAAECBAgQIECAAAECBHIJCCZySeqHAAECBAgQIECAAAECBAgQSBYQTCSTaUCAAAECBAgQIECAAAECBAjkEhBM5JLUDwECBAgQIECAAAECBAgQIJAsIJhIJtOAAAECBAgQIECAAAECBAgQyCUgmMglqR8CBAgQIECAAAECBAgQIEAgWUAwkUymAQECBAgQIECAAAECBAgQIJBLQDCRS1I/BAgQIECAAAECBAgQIECAQLKAYCKZTAMCBAgQIECAAAECBAgQIEAgl4BgIpekfggQIECAAAECBAgQIECAAIFkAcFEMpkGBAgQIECAAAECBAgQIECAQC4BwUQuSf0QIECAAAECBAgQIECAAAECyQKCiWQyDQgQIECAAAECBAgQIECAAIFcAoKJXJL6IUCAAAECBAgQIECAAAECBJIFBBPJZBoQIECAAAECBAgQIECAAAECuQQEE7kk9UOAAAECBAgQIECAAAECBAgkCwgmksk0IECAAAECBAgQIECAAAECBHIJCCZySeqHAAECBAgQIECAAAECBAgQSBYQTCSTaUCAAAECBAgQIECAAAECBAjkEhBM5JLUDwECBAgQIECAAAECBAgQIJAsIJhIJtOAAAECBAgQIECAAAECBAgQyCUgmMglqR8CBAgQIECAAAECBAgQIEAgWUAwkUymAQECBAgQIECAAAECBAgQIJBLQDCRS1I/BAgQIECAAAECBAgQIECAQLKAYCKZTAMCBAgQIECAAAECBAgQIEAgl4BgIpekfggQIECAAAECBAgQIECAAIFkAcFEMpkGBAgQIECAAAECBAgQIECAQC4BwUQuSf0QIECAAAECBAgQIECAAAECyQKCiWQyDQgQIECAAAECBAgQIECAAIFcAoKJXJL6IUCAAAECBAgQIECAAAECBJIFBBPJZBoQIECAAAECBAgQIECAAAECuQQEE7kk9UOAAAECBAgQIECAAAECBAgkCwgmksk0IECAAAECBAgQIECAAAECBHIJCCZySeqHAAECBAgQIECAAAECBAgQSBYQTCSTaUCAAAECBAgQIECAAAECBAjkEhBM5JLUDwECBAgQIECAAAECBAgQIJAsIJhIJtOAAAECBAgQIECAAAECBAgQyCUgmMglqR8CBAgQIECAAAECBAgQIEAgWUAwkUymAQECBAgQIECAAAECBAgQIJBLQDCRS1I/BAgQIECAAAECBAgQIECAQLKAYCKZTAMCBAgQIECAAAECBAgQIEAgl4BgIpekfggQIECAAAECBAgQIECAAIFkAcFEMpkGBAgQIECAAAECBAgQIECAQC4BwUQuSf0QIECAAAECBAgQIECAAAECyQKCiWQyDQgQIECAAAECBAgQIECAAIFcAoKJXJL6IUCAAAECBAgQIECAAAECBJIFBBPJZBoQIECAAAECBAgQIECAAAECuQQEE7kk9UOAAAECBAgQIECAAAECBAgkCwgmksk0IECAAAECBAgQIECAAAECBHIJCCZySeqHAAECBAgQIECAAAECBAgQSBYQTCSTaUCAAAECBAgQIECAAAECBAjkEhBM5JLUDwECBAgQIECAAAECBAgQIJAsIJhIJtOAAAECBAgQIECAAAECBAgQyCUgmMglqR8CBAgQIECAAAECBAgQIEAgWUAwkUymAQECBAgQIECAAAECBAgQIJBLQDCRS1I/BAgQIECAAAECBAgQIECAQLKAYCKZTAMCBAgQIECAAAECBAgQIEAgl4BgIpekfggQIECAAAECBAgQIECAAIFkAcFEMpkGBAgQIECAAAECBAgQIECAQC4BwUQuSf0QIECAAAECBAgQIECAAAECyQKCiWQyDQgQIECAAAECBAgQIECAAIFcAoKJXJL6IUCAAAECBAgQIECAAAECBJIFBBPJZBoQIECAAAECBAgQIECAAAECuQQEE7kk9UOAAAECBAgQIECAAAECBAgkCwgmksk0IECAAAECBAgQIECAAAECBHIJCCZySeqHAAECBAgQIECAAAECBAgQSBYQTCSTaUCAAAECBAgQIECAAAECBAjkEhBM5JLUDwECBAgQIECAAAECBAgQIJAsIJhIJtOAAAECBAgQIECAAAECBAgQyCUgmMglqR8CBAgQIECAAAECBAgQIEAgWUAwkUymAQECBAgQIECAAAECBAgQIJBLQDCRS1I/BAgQIECAAAECBAgQIECAQLKAYCKZTAMCBAgQIECAAAECBAgQIEAgl4BgIpekfggQIECAAAECBAgQIECAAIFkAcFEMpkGBAgQIECAAAECBAgQIECAQC4BwUQuSf0QIECAAAECBAgQIECAAAECyQKCiWQyDQgQIECAAAECBAgQIECAAIFcAoKJXJL6IUCAAAECBAgQIECAAAECBJIFBBPJZBoQIECAAAECBAgQIECAAAECuQQEE7kk9UOAAAECBAgQIECAAAECBAgkCwgmksk0IECAAAECBAgQIECAAAECBHIJCCZySeqHAAECBAgQIECAAAECBAgQSBYQTCSTaUCAAAECBAgQIECAAAECBAjkEhBM5JLUDwECBAgQIECAAAECBAgQIJAsIJhIJtOAAAECBAgQIECAAAECBAgQyCUgmMglqR8CBAgQIECAAAECBAgQIEAgWUAwkUymAQECBAgQIECAAAECBAgQIJBLQDCRS1I/BAgQIECAAAECBAgQIECAQLKAYCKZTAMCBAgQIECAAAECBAgQIEAgl4BgIpekfggQIECAAAECBAgQIECAAIFkAcFEMpkGBAgQIECAAAECBAgQIECAQC4BwUQuSf0QIECAAAECBAgQIECAAAECyQKCiWQyDQgQIECAAAECBAgQIECAAIFcAoKJXJL6IUCAAAECBAgQIECAAAECBJIFBBPJZBoQIECAAAECBAgQIECAAAECuQQEE7kk9UOAAAECBAgQIECAAAECBAgkCwgmksk0IECAAAECBAgQIECAAAECBHIJCCZySeqHAAECBAgQIECAAAECBAgQSBYQTCSTaUCAAAECBAgQIECAAAECBAjkEhBM5JLUDwECBAgQIECAAAECBAgQIJAsIJhIJtOAAAECBAgQIECAAAECBAgQyCUgmMglqR8CBAgQIECAAAECBAgQIEAgWUAwkUymAQECBAgQIECAAAECBAgQIJBLQDCRS1I/BAgQIECAAAECBAgQIECAQLKAYCKZTAMCBAgQIECAAAECBAgQIEAgl4BgIpekfggQIECAAAECBAgQIECAAIFkAcFEMpkGBAgQIECAAAECBAgQIECAQC4BwUQuSf0QIECAAAECBAgQIECAAAECyQKCiWQyDQgQIECAAAECBAgQIECAAIFcAoKJXJL6IUCAAAECBAgQIECAAAECBJIFBBPJZBoQIECAAAECBAgQIECAAAECuQQEE7kk9UOAAAECBAgQIECAAAECBAgkCwgmksk0IECAAAECBAgQIECAAAECBHIJCCZySeqHAAECBAgQIECAAAECBAgQSBYQTCSTaUCAAAECBAgQIECAAAECBAjkEhBM5JLUDwECBAgQIECAAAECBAgQIJAsIJhIJtOAAAECBAgQIECAAAECBAgQyCUgmMglqR8CBAgQIECAAAECBAgQIEAgWUAwkUymAQECBAgQIECAAAECBAgQIJBLQDCRS1I/BAgQIECAAAECBAgQIECAQLKAYCKZTAMCBAgQIECAAAECBAgQIEAgl4BgIpekfggQIECAAAECBAgQIECAAIFkAcFEMpkGBAgQIECAAAECBAgQIECAQC4BwUQuSf0QIECAAAECBAgQIECAAAECyQKCiWQyDQgQIECAAAECBAgQIECAAIFcAoKJXJL6IUCAAAECBAgQIECAAAECBJIFBBPJZBoQIECAAAECBAgQIECAAAECuQQEE7kk9UOAAAECBAgQIECAAAECBAgkCwgmksk0IECAAAECBAgQIECAAAECBHIJCCZySeqHAAECBAgQIECAAAECBAgQSBYQTCSTaUCAAAECBAgQIECAAAECBAjkEhBM5JLUDwECBAgQIECAAAECBAgQIJAsIJhIJtOAAAECBAgQIECAAAECBAgQyCUgmMglqR8CBAgQIECAAAECBAgQIEAgWUAwkUymAQECBAgQIECAAAECBAgQIJBLQDCRS1I/BAgQIECAAAECBAgQIECAQLKAYCKZTAMCBAgQIECAAAECBAgQIEAgl4BgIpekfggQIECAAAECBAgQIECAAIFkAcFEMpkGBAgQIECAAAECBAgQIECAQC4BwUQuSf0QIECAAAECBAgQIECAAAECyQKCiWQyDQgQIECAAAECBAgQIECAAIFcAoKJXJL6IUCAAAECBAgQIECAAAECBJIFBBPJZBoQIECAAAECBAgQIECAAAECuQQEE7kk9UOAAAECBAgQIECAAAECBAgkCwgmksk0IECAAAECBAgQIECAAAECBHIJCCZySeqHAAECBAgQIECAAAECBAgQSBYQTCSTaUCAAAECBAgQIECAAAECBAjkEhBM5JLUDwECBAgQIECAAAECBAgQIJAsIJhIJtOAAAECBAgQIECAAAECBAgQyCUgmMglqR8CBAgQIECAAAECBAgQIEAgWUAwkUymAQECBAgQIECAAAECBAgQIJBLQDCRS1I/BAgQIECAAAECBAgQIECAQLKAYCKZTAMCBAgQIECAAAECBAgQIEAgl4BgIpekfggQIECAAAECBAgQIECAAIFkAcFEMpkGBAgQIECAAAECBAgQIECAQC4BwUQuSf0QIECAAAECBAgQIECAAAECyQKCiWQyDQgQIECAAAECBAgQIECAAIFcAoKJXJL6IUCAAAECBAgQIECAAAECBJIFBBPJZBoQIECAAAECBAgQIECAAAECuQQEE7kk9UOAAAECBAgQIECAAAECBAgkCwgmksk0IECAAAECBAgQIECAAAECBHIJCCZySeqHAAECBAgQIECAAAECBAgQSBYQTCSTaUCAAAECBAgQIECAAAECBAjkEhBM5JLUDwECBAgQIECAAAECBAgQIJAsIJhIJtOAAAECBAgQIECAAAECBAgQyCWwxdQ7Wr9+/e2337569eq//vWvIyMj22+//Zve9KY3v/nNU+95w4YNq1atCj2HvyeffDJ0+LrXvW7nnXeeM2fOrFmzpt6/HggQIECAAAECBAgQIECAAIFmBaYUTLz44osXXnjhZZddtm7dur5lzJs377TTTnvLW97SVz/x4m9/+9szzjjj/vvvH7PJscce+6lPfWrrrbce86xKAgQIECBAgAABAgQIECBAYCgEpoVnHCY30eeff/74449fvnz5gOZnnnnmYYcdNuCCMU+FByVOP/30H/3oR2OerStnzpwZYpG99tqrrpn6wdy5c/s6WblyZV+NIgECBAgQIECAAAECBAgQIJBLYPLBxBe+8IVrr722mkfICD7ykY/suuuuL7zwwq9+9aslS5bU87vyyivf+ta31sWJHHzve9/7zne+U195xBFHhHdDXvOa14R3Rh5++OHrr79+xYoV1dkwbhhr9uzZ9cVTPBBMTBFQcwIECBAgQIAAAQIECBAgkCQwyWDi1ltv/fSnP12NtO+++5577rkvf/nL64Hvvffe4447rnq/I3wMYunSpdOnT6/PDj546KGHFi5cWF0T8oizzjprl1126W0Snqe44YYbFi1aVFXuvffe4V2S3gumciyYmIqetgQIECBAgAABAgQIECBAIFVgkr/KccUVV1Qj7bbbbosXL+5NJUL9/Pnzw0sW1QVPP/10CCaq44n8+4tf/KK6LDwNccEFF/SlEuHUZpttdvDBB3/pS1+qLlu2bFl4TGMiPbuGAAECBAgQIECAAAECBAgQaJvAZIKJRx55JMQB1UrCCx0zZswYvarw6Yf999+/qr/qqqtGXzBeTXgTpDoV0ofwAx/jXXb44YfXp373u9/Vxw4IECBAgAABAgQIECBAgACBIRKYTDARvvJQrTC8prHffvuNt9o6O7jjjjsee+yx8S7rq1+7dm1V89rXvrbvVG8xpCH1pyXWrFnTe8oxAQIECBAgQIAAAQIECBAgMCwCkwkm6m9evvOd75w2bdp4S+39rdDwTYrxLuurDx+5rGoGZxnhl0rrC171qlf1daJIgAABAgQIECBAgAABAgQIDIVAcjARvj25atWqam1ve9vbBiwyfCRizz33rC5YvXr1gCt7T9WfnwzPZYRfJO091Xt8yy231MU5c+bUxw4IECBAgAABAgQIECBAgACBIRJIDiaee+65ennz5s2rj8c8eMMb3lDVP/7442NeMLrykEMOqSrDVzO/8pWv9A5XX/yb3/zmlFNOqYoHHXTQdtttV59yQIAAAQIECBAgQIAAAQIECAyRwBapc33qqafqJltuuWV9PObBNttsU9XXr12MeVlvZXgvI/xEaPVroDfffPPtt99+/PHHh8cowocw169fH568CDX1uyThWYnPf/7zvc0dEyBAgAABAgQIECBAgAABAkMkkBxMhAcZ6uX1/UpoXV8fbL311tVx0vcpw+9xvOxlL/vmN78ZYoh169Z9+9vfrjvsPTjhhBM++clPTp8+vbcy6bh+bSSplYsJECBAgAABAgQIECBAgACBXALJr3L0PjEx8WBi4k9MVAsLz2LssMMOgxf5j3/8429/+9vga5wlQIAAAQIECBAgQIAAAQIE2iyQHExsttl/m4yMjAxe20YvGLP5FVdccfTRR99555312fCtigULFuy777477bRTXfn9738/fJDi4YcfrmscECBAgAABAgQIECBAgAABAsMlkPwqxytf+cp6heFXM+qXNerK3oO1a9dWxd5AofeC0cdLliw5/fTTq/rwux5f/vKXQ/qw+eab11eG72ied955V199dagJD2IcfvjhP//5z8OrH/UFDggQIECAAAECBAgQIECAAIFhEfjv4w8TnHFvMLHRNynq39R49atfPZH+w+ctv/GNb1RXzp49+7bbbjvssMN6U4lwKnT19a9/PWQT1WXhmxeXXnrpRDp3DQECBAgQIECAAAECBAgQINA2geRgYtasWfUa6tyhruk7qJ+YCL+p0XdqzOLSpUvrr1Gce+65r3jFK8a8LFSGNzvqHxZdvHjxhg0bxrtSPQECBAgQIECAAAECBAgQINBageRXObbaaqt6MQ8++GD4+kNdHH1wzz33VJXhR0BHnx1d89BDD1WV4XGJ+fPnj76gt+bAAw+85pprqpoQZ2z0Y5m9bavjlStX9lX6nY4+EEUCBAgQIECAAAECBAgQILBJBZKfmJg2bdq8efOqOf3yl78cMLnwPMX9999fXbDLLrsMuLI+9ac//ak6fv3rX19XjnfQ22f4YdHxLlNPgAABAgQIECBAgAABAgQItFYgOZgIKzn00EOr9YQ3L1588cXx1nbXXXfVp9797nfXxwMO6gcrnnzyyQGXVafC1yXqa7bYIvnRj7qtAwIECBAgQIAAAQIECBAgQKApgckEEwcccEA13XXr1t10003jTb3+JuXChQsHfC2it/kee+xRFVesWLHRD1jcfffddVuvYNQUDggQIECAAAECBAgQIECAwBAJTCaYCD/MUT8BcfbZZz/zzDOjF3zdddfde++9VX39lcr6shA6XHTRRZ/5zGd6n6oIZ3vf4PjKV74yMjJSN+k7+POf/1z/fseee+655ZZb9l2gSIAAAQIECBAgQIAAAQIECLRfYDLBRFjV0UcfXa0tfHXymGOO+ctf/lIvNaQJ119//aJFi6qaOXPm7L333vXZ6iA0P+ecc5YsWXLUUUfdd9999dndd9+9jjxuueWWL37xi48++mh9tj4IPyP6sY99rC4efvjh9bEDAgQIECBAgAABAgQIECBAYIgEpg14KmHwMs4666yLL764via83xFihRdeeGHZsmXhRYy6/sYbb+x7z+KJJ57YZ5996gvCj2uEkKIuhocpDjrooPpHQ0P9wQcf/NrXvjb86Mb69evDRy5//etf19/UDGc//OEPn3rqqXXzKR70TTX0NvqXO6Y4hOYECBAgQIAAAQIECBAgQIBALTD5b0aefPLJzz777NVXX131NfpjEzNnzjzvvPNG/6/+rFmzXvKSl/zzn/+sGvb+uEao2XrrrUPe8eUvf7lOH8JbIfV0+w7CkxfhqYq+SkUCBAgQIECAAAECBAgQIEBgWAQm/8REtcJrrrnme9/73qpVq/oWvGDBgs9+9rOve93r+uqr4pVXXvm1r33tX//616677hqijRBh9F22YcOGn/3sZ+GhjPF+BzQ8RnHiiSfuvPPOfQ2nWBwdo3hiYoqkmhMgQIAAAQIECBAgQIAAgQECUw0mQtfhZZAHHnggfI0yvKMxffr08M5F+HGN7bbbbsCo4VT4ndG1a9eGpycGXxaueeSRR8I3LNasWfOyl73sNa95zY477hiGeOlLXzq44eTOCiYm56YVAQIECBAgQIAAAQIECBCYnECGYGJyA7ezlWCinftiVgQIECBAgAABAgQIECDwvyowyV/l+F/lsC4CBAgQIECAAAECBAgQIECgpIBgoqS2sQgQIECAAAECBAgQIECAAIFIQDARcSgQIECAAAECBAgQIECAAAECJQUEEyW1jUWAAAECBAgQIECAAAECBAhEAoKJiEOBAAECBAgQIECAAAECBAgQKCkgmCipbSwCBAgQIECAAAECBAgQIEAgEhBMRBwKBAgQIECAAAECBAgQIECAQEkBwURJbWMRIECAAAECBAgQIECAAAECkYBgIuJQIECAAAECBAgQIECAAAECBEoKCCZKahuLAAECBAgQIECAAAECBAgQiAQEExGHAgECBAgQIECAAAECBAgQIFBSQDBRUttYBAgQIECAAAECBAgQIECAQCQgmIg4FAgQIECAAAECBAgQIECAAIGSAoKJktrGIkCAAAECBAgQIECAAAECBCIBwUTEoUCAAAECBAgQIECAAAECBAiUFBBMlNQ2FgECBAgQIECAAAECBAgQIBAJCCYiDgUCBAgQIECAAAECBAgQIECgpIBgoqS2sQgQIECAAAECBAgQIECAAIFIQDARcSgQIECAAAECBAgQIECAAAECJQUEEyW1jUWAAAECBAgQIECAAAECBAhEAoKJiEOBAAECBAgQIECAAAECBAgQKCkgmCipbSwCBAgQIECAAAECBAgQIEAgEhBMRBwKBAgQIECAAAECBAgQIECAQEkBwURJbWMRIECAAAECBAgQIECAAAECkYBgIuJQIECAAAECBAgQIECAAAECBEoKCCZKahuLAAECBAgQIECAAAECBAgQiAQEExGHAgECBAgQIECAAAECBAgQIFBSQDBRUttYBAgQIECAAAECBAgQIECAQCQgmIg4FAgQIECAAAECBAgQIECAAIGSAoKJktrGIkCAAAECBAgQIECAAAECBCIBwUTEoUCAAAECBAgQIECAAAECBAiUFBBMlNQ2FgECBAgQIECAAAECBAgQIBAJCCYiDgUCBAgQIECAAAECBAgQIECgpIBgoqS2sQgQIECAAAECBAgQIECAAIFIQDARcSgQIECAAAECBAgQIECAAAECJQUEEyW1jUWAAAECBAgQIECAAAECBAhEAoKJiEOBAAECBAgQIECAAAECBAgQKCkgmCipbSwCBAgQIECAAAECBAgQIEAgEhBMRBwKBAgQIECAAAECBAgQIECAQEkBwURJbWMRIECAAAECBAgQIECAAAECkYBgIuJQIECAAAECBAgQIECAAAECBEoKCCZKahuLAAECBAgQIECAAAECBAgQiAQEExGHAgECBAgQIECAAAECBAgQIFBSQDBRUttYBAgQIECAAAECBAgQIECAQCQgmIg4FAgQIECAAAECBAgQIECAAIGSAoKJktrGIkCAAAECBAgQIECAAAECBCIBwUTEoUCAAAECBAgQIECAAAECBAiUFBBMlNQ2FgECBAgQIECAAAECBAgQIBAJCCYiDgUCBAgQIECAAAECBAgQIECgpIBgoqS2sQgQIECAAAECBAgQIECAAIFIQDARcSgQIECAAAECBAgQIECAAAECJQUEEyW1jUWAAAECBAgQIECAAAECBAhEAoKJiEOBAAECBAgQIECAAAECBAgQKCkgmCipbSwCBAgQIECAAAECBAgQIEAgEhBMRBwKBAgQIECAAAECBAgQIECAQEkBwURJbWMRIECAAAECBAgQIECAAAECkYBgIuJQIECAAAECBAgQIECAAAECBEoKCCZKahuLAAECBAgQIECAAAECBAgQiAQEExGHAgECBAgQIECAAAECBAgQIFBSQDBRUttYBAgQIECAAAECBAgQIECAQCQgmIg4FAgQIECAAAECBAgQIECAAIGSAoKJktrGIkCAAAECBAgQIECAAAECBCIBwUTEoUCAAAECBAgQIECAAAECBAiUFBBMlNQ2FgECBAgQIECAAAECBAgQIBAJCCYiDgUCBAgQIECAAAECBAgQIECgpIBgoqS2sQgQIECAAAECBAgQIECAAIFIQDARcSgQIECAAAECBAgQIECAAAECJQUEEyW1jUWAAAECBAgQIECAAAECBAhEAoKJiEOBAAECBAgQIECAAAECBAgQKCkgmCipbSwCBAgQIECAAAECBAgQIEAgEhBMRBwKBAgQIECAAAECBAgQIECAQEkBwURJbWMRIECAAAECBAgQIECAAAECkYBgIuJQIECAAAECBAgQIECAAAECBEoKCCZKahuLAAECBAgQIECAAAECBAgQiAQEExGHAgECBAgQIECAAAECBAgQIFBSQDBRUttYBAgQIECAAAECBAgQIECAQCQgmIg4FAgQIECAAAECBAgQIECAAIGSAoKJktrGIkCAAAECBAgQIECAAAECBCIBwUTEoUCAAAECBAgQIECAAAECBAiUFBBMlNQ2FgECBAgQIECAAAECBAgQIBAJCCYiDgUCBAgQIECAAAECBAgQIECgpIBgoqS2sQgQIECAAAECBAgQIECAAIFIQDARcSgQIECAAAECBAgQIECAAAECJQUEEyW1jUWAAAECBAgQIECAAAECBAhEAoKJiEOBAAECBAgQIECAAAECBAgQKCkgmCipbSwCBAgQIECAAAECBAgQIEAgEhBMRBwKBAgQIECAAAECBAgQIECAQEkBwURJbWMRIECAAAECBAgQIECAAAECkYBgIuJQIECAAAECBAgQIECAAAECBEoKCCZKahuLAAECBAgQIECAAAECBAgQiAQEExGHAgECBAgQIECAAAECBAgQIFBSQDBRUttYBAgQIECAAAECBAgQIECAQCQgmIg4FAgQIECAAAECBAgQIECAAIGSAoKJktrGIkCAAAECBAgQIECAAAECBCIBwUTEoUCAAAECBAgQIECAAAECBAiUFBBMlNQ2FgECBAgQIECAAAECBAgQIBAJCCYiDgUCBAgQIECAAAECBAgQIECgpIBgoqS2sQgQIECAAAECBAgQIECAAIFIQDARcSgQIECAAAECBAgQIECAAAECJQUEEyW1jUWAAAECBAgQIECAAAECBAhEAoKJiEOBAAECBAgQIECAAAECBAgQKCkgmCipbSwCBAgQIECAAAECBAgQIEAgEhBMRBwKBAgQIECAAAECBAgQIECAQEkBwURJbWMRIECAAAECBAgQIECAAAECkYBgIuJQIECAAAECBAgQIECAAAECBEoKCCZKahuLAAECBAgQIECAAAECBAgQiAQEExGHAgECBAgQIECAAAECBAgQIFBSQDBRUttYBAgQIECAAAECBAgQIECAQCQgmIg4FAgQIECAAAECBAgQIECAAIGSAoKJktrGIkCAAAECBAgQIECAAAECBCIBwUTEoUCAAAECBAgQIECAAAECBAiUFBBMlNQ2FgECBAgQIECAAAECBAgQIBAJCCYiDgUCBAgQIECAAAECBAgQIECgpIBgoqS2sQgQIECAAAECBAgQIECAAIFIQDARcSgQIECAAAECBAgQIECAAAECJQUEEyW1jUWAAAECBAgQIECAAAECBAhEAoKJiEOBAAECBAgQIECAAAECBAgQKCkgmCipbSwCBAgQIECAAAECBAgQIEAgEhBMRBwKBAgQIECAAAECBAgQIECAQEkBwURJbWMRIECAAAECBAgQIECAAAECkYBgIuJQIECAAAECBAgQIECAAAECBEoKCCZKahuLAAECBAgQIECAAAECBAgQiAQEExGHAgECBAgQIECAAAECBAgQIFBSQDBRUttYBAgQIECAAAECBAgQIECAQCQgmIg4FAgQIECAAAECBAgQIECAAIGSAoKJktrGIkCAAAECBAgQIECAAAECBCIBwUTEoUCAAAECBAgQIECAAAECBAiUFBBMlNQ2FgECBAgQIECAAAECBAgQIBAJCCYiDgUCBAgQIECAAAECBAgQIECgpIBgoqS2sQgQIECAAAECBAgQIECAAIFIQDARcSgQIECAAAECBAgQIECAAAECJQUEEyW1jUWAAAECBAgQIECAAAECBAhEAoKJiEOBAAECBAgQIECAAAECBAgQKCkgmCipbSwCBAgQIECAAAECBAgQIEAgEhBMRBwKBAgQIECAAAECBAgQIECAQEkBwURJbWMRIECAAAECBAgQIECAAAECkYBgIuJQIECAAAECBAgQIECAAAECBEoKCCZKahuLAAECBAgQIECAAAECBAgQiAQEExGHAgECBAgQIECAAAECBAgQIFBSQDBRUttYBAgQIECAAAECBAgQIECAQCQgmIg4FAgQIECAAAECBAgQIECAAIGSAoKJktrGIkCAAAECBAgQIECAAAECBCIBwUTEoUCAAAECBAgQIECAAAECBAiUFBBMlNQ2FgECBAgQIECAAAECBAgQIBAJCCYiDgUCBAgQIECAAAECBAgQIECgpIBgoqS2sQgQIECAAAECBAgQIECAAIFIQDARcSgQIECAAAECBAgQIECAAAECJQUEEyW1jUWAAAECBAgQIECAAAECBAhEAoKJiEOBAAECBAgQIECAAAECBAgQKCkgmCipbSwCBAgQIECAAAECBAgQIEAgEhBMRBwKBAgQIECAAAECBAgQIECAQEkBwURJbWMRIECAAAECBAgQIECAAAECkYBgIuJQIECAAAECBAgQIECAAAECBEoKCCZKahuLAAECBAgQIECAAAECBAgQiAQEExGHAgECBAgQIECAAAECBAgQIFBSQDBRUttYBAgQIECAAAECBAgQIECAQCQgmIg4FAgQIECAAAECBAgQIECAAIGSAoKJktrGIkCAAAECBAgQIECAAAECBCIBwUTEoUCAAAECBAgQIECAAAECBAiUFBBMlNQ2FgECBAgQIECAAAECBAgQIBAJCCYiDgUCBAgQIECAAAECBAgQIECgpIBgoqS2sQgQIECAAAECBAgQIECAAIFIQDARcSgQIECAAAECBAgQIECAAAECJQUEEyW1jUWAAAECBAgQIECAAAECBAhEAoKJiEOBAAECBAgQIECAAAECBAgQKCkgmCipbSwCBAgQIECAAAECBAgQIEAgEhBMRBwKBAgQIECAAAECBAgQIECAQEkBwURJbWMRIECAAAECBAgQIECAAAECkYBgIuJQIECAAAECBAgQIECAAAECBEoKCCZKahuLAAECBAgQIECAAAECBAgQiAQEExGHAgECBAgQIECAAAECBAgQIFBSQDBRUttYBAgQIECAAAECBAgQIECAQCQgmIg4FAgQIECAAAECBAgQIECAAIGSAoKJktrGIkCAAAECBAgQIECAAAECBCIBwUTEoUCAAAECBAgQIECAAAECBAiUFBBMlNQ2FgECBAgQIECAAAECBAgQIBAJCCYiDgUCBAgQIECAAAECBAgQIECgpIBgoqS2sQgQIECAAAECBAgQIECAAIFIQDARcSgQIECAAAECBAgQIECAAAECJQUEEyW1jUWAAAECBAgQIECAAAECBAhEAoKJiEOBAAECBAgQIECAAAECBAgQKCkgmCipbSwCBAgQIECAAAECBAgQIEAgEhBMRBwKBAgQIECAAAECBAgQIECAQEkBwURJbWMRIECAAAECBAgQIECAAAECkYBgIuJQIECAAAECBAgQIECAAAECBEoKCCZKahuLAAECBAgQIECAAAECBAgQiAQEExGHAgECBAgQIECAAAECBAgQIFBSQDBRUttYBAgQIECAAAECBAgQIECAQCQgmIg4FAgQIECAAAECBAgQIECAAIGSAoKJktrGIkCAAAECBAgQIECAAAECBCIBwUTEoUCAAAECBAgQIECAAAECBAiUFBBMlNQ2FgECBAgQIECAAAECBAgQIBAJCCYiDgUCBAgQIECAAAECBAgQIECgpIBgoqS2sQgQIECAAAECBAgQIECAAIFIQDARcSgQIECAAAECBAgQIECAAAECJQUEEyW1jUWAAAECBAgQIECAAAECBAhEAoKJiEOBAAECBAgQIECAAAECBAgQKCkgmCipbSwCBAgQIECAAAECBAgQIEAgEhBMRBwKBAgQIECAAAECBAgQIECAQEkBwURJbWMRIECAAAECBAgQIECAAAECkYBgIuJQIECAAAECBAgQIECAAAECBEoKCCZKahuLAAECBAgQIECAAAECBAgQiAQEExGHAgECBAgQIECAAAECBAgQIFBSQDBRUttYBAgQIECAAAECBAgQIECAQCQgmIg4FAgQIECAAAECBAgQIECAAIGSAltMfbD169fffvvtq1ev/utf/zoyMrL99tu/6U1vevOb3zz1nqseHnzwwfvuu+/RRx/dbLPNtt1225122mmXXXaZM2dOrv71Q4AAAQIECBAgQIAAAQIECDQlMKVg4sUXX7zwwgsvu+yydevW9S1g3rx5p5122lve8pa++qTiAw88cOqpp95///2jWy1YsOCkk07addddR59SQ4AAAQIECBAgQIAAAQIECAyLwLTwjMPk5vr8888ff/zxy5cvH9D8zDPPPOywwwZcMODUddddt2jRogEXhFOXXHLJvvvuO/iapLNz587tu37lypV9NYoECBAgQIAAAQIECBAgQIBALoHJBxNf+MIXrr322moeM2fO/MhHPhKeX3jhhRd+9atfLVmypJ7flVde+da3vrUuTvDgnnvuOeKII+qL99xzz3322WfnnXdes2ZNGPT3v/99dSqMe8MNN+y44471lVM8EExMEVBzAgQIECBAgAABAgQIECCQJDDJYOLWW2/99Kc/XY0Unlk499xzX/7yl9cD33vvvccdd1z1fsesWbOWLl06ffr0+uxGD8JHK971rnc9/fTT1ZXXXHPNG9/4xrpVeH/k8ssvD89iVDXhyosuuqg+O8UDwcQUATUnQIAAAQIECBAgQIAAAQJJApP8VY4rrriiGma33XZbvHhxbyoR6ufPnx++PVFdEPKFEPbQXBIAAEAASURBVExUxxP8NzxwUacSP/jBD3pTidDD5ptvfswxx3z4wx+uervtttvCSyUT7NllBAgQIECAAAECBAgQIECAQKsEJhNMPPLII8uWLauWEV7omDFjxugl7bXXXvvvv39Vf9VVV42+YEDND3/4w+rs5z//+dDPmFd+7GMfq+sHf+eivswBAQIECBAgQIAAAQIECBAg0DaByfwqx/XXX18tI7ymsd9++423pMMPPzy88RHO3nHHHY899tjs2bPHu7K3PvwSx4oVK6qaD3zgA72neo/D9yY+/vGPP/XUU6Fyyy237D3lmAABAgQIECBAgAABAgQIEBgWgckEE/U3L9/5zndOmzZtvKX2/lZoSCiOOuqo8a7srf/xj39cFRcuXPjKV76y91TfcXhYo69GkQABAgQIECBAgAABAgQIEBgugeRgYsOGDatWraoW+ba3vW3AasNPZoRf07jzzjvDNatXrx5wZe+p8HscVfH9739/XR8GDV+dePLJJ1/1n7+6fooHoz91OcUONSdAgAABAgQIECBAgAABAgSSBJKDieeee64eYN68efXxmAdveMMbqmDi8ccfH/OC0ZUPPfRQVVn9CGhINMInJ8InMOsrQ94RPq4ZYouDDz64rnRAgAABAgQIECBAgAABAgQIDKNAcjBRfdahWupGP+6wzTbbVFeGb0xMRKf6hdHqyvBsxC233HLiiSf2NQzX/L///IWzp59+eris7wJFAgQIECBAgAABAgQIECBAYFgEkn+Vo/4hz7DCvl8JHb3mrbfeuqpcs2bN6LOja8LLGnVl+K2N3lQiPCUR/sLjEvUF4bsV4bmJ3ic46lMOCBAgQIAAAQIECBAgQIAAgaEQSA4mep+YmHgwMcEnJp544ola7ZRTTgnHIYk477zzfve73/3f//zdd9994b877bRTdVlIScLZuokDAgQIECBAgAABAgQIECBAYLgEkoOJzTb7b5ORkZHBq93oBX3Nn3nmmbomvLIRfo40vK+xYMGC3kHDcxM33nhj+Le68vLLLw+/MFq3ckCAAAECBAgQIECAAAECBAgMkUDyNyZ6f8Lz+eefr1/WGHPNa9eurerrZxzGvKyu7HsE4xvf+MZ2221Xn60PZsyYccYZZxx44IFVTXin441vfGN9duIHK1eu7LvY73T0gSgSIECAAAECBAgQIECAAIFNKvDfxx8mOExvMPG3v/1tcKv6AxCvfvWrB19Zne2NIcIzEe94xzvGaxUShIULF1ZnR+cL47VST4AAAQIECBAgQIAAAQIECLRKIDmYCK9X1Auoc4e6pu+gfmJi++237zs1ZrH3JzY2+hBE/WOlv//978fsTSUBAgQIECBAgAABAgQIECDQcoHkYGKrrbaql/Tggw/Wx2Me3HPPPVV9b+Iw5pVVZe+LITvuuOOAK8Op+imM1atXp37MYnDPzhIgQIAAAQIECBAgQIAAAQJlBJKDiWnTptWPKvzyl78cMMvwPMX9999fXbDLLrsMuLI+FT5yOXv27KrY+9Oh9QW9B48++mhVnDNnTphV7ynHBAgQIECAAAECBAgQIECAwFAIJAcTYVWHHnpotbalS5e++OKL463zrrvuqk+9+93vro8HH+y7777VBRt9QeMPf/hDdeUee+wxuE9nCRAgQIAAAQIECBAgQIAAgXYKTCaYOOCAA6rFhF/0vOmmm8Zb2KWXXlqdCl+pfMUrXjHeZX31Rx55ZFVzxx13DHhVZNWqVTfffHN15etf//q+ThQJECBAgAABAgQIECBAgACBoRCYTDARfpijfgLi7LPPfuaZZ0Yv9brrrrv33nur+kMOOaTvgvCWx0UXXfSZz3ym96mK6prw+EP4PY7q+LTTTvvHP/7R1zYUN2zYcOaZZ9b1+++/f33sgAABAgQIECBAgAABAgQIEBgigckEE2F5Rx99dLXIxx577JhjjvnLX/5Srzl8h/L6669ftGhRVRM+ALH33nvXZ6uD0Pycc85ZsmTJUUcddffdd/ed/ehHP1rV/OY3v/nQhz708MMP917w+OOPH3fcceF5iqry5JNP3nXXXXsvcEyAAAECBAgQIECAAAECBAgMi8C0Sf+exVlnnXXxxRfX6wzvd+y+++4vvPDCsmXLVqxYUdffeOONc+fOrYvh4Iknnthnn33qmvDwxYUXXlgXw0H4bsXnPve5EFvUle94xzvCr4eGT2OGlzuWL18eXiGpTu22227h0YyXvOQl9ZVTPOibauht5cqVU+xTcwIECBAgQIAAAQIECBAgQGA8gS3GO7HR+vCowrPPPnv11VdXV47+2MTMmTPPO++80f+rP2vWrBAl/POf/6wajv5CxOabb/7Nb37z73//+2233VZdE76yGf6q4/rfBQsWnHrqqRlTibpnBwQIECBAgAABAgQIECBAgEAZgUm+yhEmFxKBr3/96yFBCC9rjJ5rSA1+8pOf1D+x0XtByB1OOeWULbb4dyYS3sI49thje89WxzNmzPjud787Xuch2jj33HND6rHtttuObquGAAECBAgQIECAAAECBAgQGBaByb/KUa8wvAzywAMP/PnPfw7vaEyfPn2HHXYIH7Dcbrvt6gvGPAjva6xduzZEDGOe7a0ML1P88Y9/fOqpp0JleHcj/IWvb/ZekPF49PMdXuXIyKsrAgQIECBAgAABAgQIECDQJ5AhmOjrcaiLgomh3j6TJ0CAAAECBAgQIECAAIGhE5j8qxxDt1QTJkCAAAECBAgQIECAAAECBNomIJho246YDwECBAgQIECAAAECBAgQ6JCAYKJDm22pBAgQIECAAAECBAgQIECgbQKCibbtiPkQIECAAAECBAgQIECAAIEOCQgmOrTZlkqAAAECBAgQIECAAAECBNomIJho246YDwECBAgQIECAAAECBAgQ6JCAYKJDm22pBAgQIECAAAECBAgQIECgbQKCibbtiPkQIECAAAECBAgQIECAAIEOCQgmOrTZlkqAAAECBAgQIECAAAECBNomIJho246YDwECBAgQIECAAAECBAgQ6JCAYKJDm22pBAgQIECAAAECBAgQIECgbQKCibbtiPkQIECAAAECBAgQIECAAIEOCQgmOrTZlkqAAAECBAgQIECAAAECBNomIJho246YDwECBAgQIECAAAECBAgQ6JCAYKJDm22pBAgQIECAAAECBAgQIECgbQKCibbtiPkQIECAAAECBAgQIECAAIEOCQgmOrTZlkqAAAECBAgQIECAAAECBNomIJho246YDwECBAgQIECAAAECBAgQ6JCAYKJDm22pBAgQIECAAAECBAgQIECgbQKCibbtiPkQIECAAAECBAgQIECAAIEOCQgmOrTZlkqAAAECBAgQIECAAAECBNomIJho246YDwECBAgQIECAAAECBAgQ6JCAYKJDm22pBAgQIECAAAECBAgQIECgbQKCibbtiPkQIECAAAECBAgQIECAAIEOCQgmOrTZlkqAAAECBAgQIECAAAECBNomIJho246YDwECBAgQIECAAAECBAgQ6JCAYKJDm22pBAgQIECAAAECBAgQIECgbQKCibbtiPkQIECAAAECBAgQIECAAIEOCQgmOrTZlkqAAAECBAgQIECAAAECBNomIJho246YDwECBAgQIECAAAECBAgQ6JCAYKJDm22pBAgQIECAAAECBAgQIECgbQKCibbtiPkQIECAAAECBAgQIECAAIEOCQgmOrTZlkqAAAECBAgQIECAAAECBNomIJho246YDwECBAgQIECAAAECBAgQ6JCAYKJDm22pBAgQIECAAAECBAgQIECgbQKCibbtiPkQIECAAAECBAgQIECAAIEOCQgmOrTZlkqAAAECBAgQIECAAAECBNomIJho246YDwECBAgQIECAAAECBAgQ6JCAYKJDm22pBAgQIECAAAECBAgQIECgbQKCibbtiPkQIECAAAECBAgQIECAAIEOCQgmOrTZlkqAAAECBAgQIECAAAECBNomIJho246YDwECBAgQIECAAAECBAgQ6JCAYKJDm22pBAgQIECAAAECBAgQIECgbQKCibbtiPkQIECAAAECBAgQIECAAIEOCQgmOrTZlkqAAAECBAgQIECAAAECBNomIJho246YDwECBAgQIECAAAECBAgQ6JCAYKJDm22pBAgQIECAAAECBAgQIECgbQKCibbtiPkQIECAAAECBAgQIECAAIEOCQgmOrTZlkqAAAECBAgQIECAAAECBNomIJho246YDwECBAgQIECAAAECBAgQ6JCAYKJDm22pBAgQIECAAAECBAgQIECgbQKCibbtiPkQIECAAAECBAgQIECAAIEOCQgmOrTZlkqAAAECBAgQIECAAAECBNomIJho246YDwECBAgQIECAAAECBAgQ6JCAYKJDm22pBAgQIECAAAECBAgQIECgbQKCibbtiPkQIECAAAECBAgQIECAAIEOCQgmOrTZlkqAAAECBAgQIECAAAECBNomIJho246YDwECBAgQIECAAAECBAgQ6JCAYKJDm22pBAgQIECAAAECBAgQIECgbQKCibbtiPkQIECAAAECBAgQIECAAIEOCQgmOrTZlkqAAAECBAgQIECAAAECBNomIJho246YDwECBAgQIECAAAECBAgQ6JCAYKJDm22pBAgQIECAAAECBAgQIECgbQKCibbtiPkQIECAAAECBAgQIECAAIEOCQgmOrTZlkqAAAECBAgQIECAAAECBNomIJho246YDwECBAgQIECAAAECBAgQ6JCAYKJDm22pBAgQIECAAAECBAgQIECgbQKCibbtiPkQIECAAAECBAgQIECAAIEOCQgmOrTZlkqAAAECBAgQIECAAAECBNomIJho246YDwECBAgQIECAAAECBAgQ6JCAYKJDm22pBAgQIECAAAECBAgQIECgbQKCibbtiPkQIECAAAECBAgQIECAAIEOCQgmOrTZlkqAAAECBAgQIECAAAECBNomIJho246YDwECBAgQIECAAAECBAgQ6JCAYKJDm22pBAgQIECAAAECBAgQIECgbQKCibbtiPkQIECAAAECBAgQIECAAIEOCQgmOrTZlkqAAAECBAgQIECAAAECBNomIJho246YDwECBAgQIECAAAECBAgQ6JCAYKJDm22pBAgQIECAAAECBAgQIECgbQKCibbtiPkQIECAAAECBAgQIECAAIEOCQgmOrTZlkqAAAECBAgQIECAAAECBNomIJho246YDwECBAgQIECAAAECBAgQ6JCAYKJDm22pBAgQIECAAAECBAgQIECgbQKCibbtiPkQIECAAAECBAgQIECAAIEOCQgmOrTZlkqAAAECBAgQIECAAAECBNomIJho246YDwECBAgQIECAAAECBAgQ6JCAYKJDm22pBAgQIECAAAECBAgQIECgbQKCibbtiPkQIECAAAECBAgQIECAAIEOCQgmOrTZlkqAAAECBAgQIECAAAECBNomIJho246YDwECBAgQIECAAAECBAgQ6JCAYKJDm22pBAgQIECAAAECBAgQIECgbQKCibbtiPkQIECAAAECBAgQIECAAIEOCQgmOrTZlkqAAAECBAgQIECAAAECBNomIJho246YDwECBAgQIECAAAECBAgQ6JCAYKJDm22pBAgQIECAAAECBAgQIECgbQKCibbtiPkQIECAAAECBAgQIECAAIEOCQgmOrTZlkqAAAECBAgQIECAAAECBNomIJho246YDwECBAgQIECAAAECBAgQ6JCAYKJDm22pBAgQIECAAAECBAgQIECgbQKCibbtiPkQIECAAAECBAgQIECAAIEOCQgmOrTZlkqAAAECBAgQIECAAAECBNomIJho246YDwECBAgQIECAAAECBAgQ6JCAYKJDm22pBAgQIECAAAECBAgQIECgbQKCibbtiPkQIECAAAECBAgQIECAAIEOCQgmOrTZlkqAAAECBAgQIECAAAECBNomIJho246YDwECBAgQIECAAAECBAgQ6JCAYKJDm22pBAgQIECAAAECBAgQIECgbQKCibbtiPkQIECAAAECBAgQIECAAIEOCQgmOrTZlkqAAAECBAgQIECAAAECBNomIJho246YDwECBAgQIECAAAECBAgQ6JCAYKJDm22pBAgQIECAAAECBAgQIECgbQKCibbtiPkQIECAAAECBAgQIECAAIEOCQgmOrTZlkqAAAECBAgQIECAAAECBNomIJho246YDwECBAgQIECAAAECBAgQ6JCAYKJDm22pBAgQIECAAAECBAgQIECgbQKCibbtiPkQIECAAAECBAgQIECAAIEOCQgmOrTZlkqAAAECBAgQIECAAAECBNomIJho246YDwECBAgQIECAAAECBAgQ6JCAYKJDm22pBAgQIECAAAECBAgQIECgbQKCibbtiPkQIECAAAECBAgQIECAAIEOCQgmOrTZlkqAAAECBAgQIECAAAECBNomIJho246YDwECBAgQIECAAAECBAgQ6JCAYKJDm22pBAgQIECAAAECBAgQIECgbQKCibbtiPkQIECAAAECBAgQIECAAIEOCQgmOrTZlkqAAAECBAgQIECAAAECBNomIJho246YDwECBAgQIECAAAECBAgQ6JCAYKJDm22pBAgQIECAAAECBAgQIECgbQKCibbtiPkQIECAAAECBAgQIECAAIEOCQgmOrTZlkqAAAECBAgQIECAAAECBNomIJho246YDwECBAgQIECAAAECBAgQ6JCAYKJDm22pBAgQIECAAAECBAgQIECgbQKCibbtiPkQIECAAAECBAgQIECAAIEOCQgmOrTZlkqAAAECBAgQIECAAAECBNomIJho246YDwECBAgQIECAAAECBAgQ6JCAYKJDm22pBAgQIECAAAECBAgQIECgbQKCibbtiPkQIECAAAECBAgQIECAAIEOCQgmOrTZlkqAAAECBAgQIECAAAECBNomIJho246YDwECBAgQIECAAAECBAgQ6JCAYKJDm22pBAgQIECAAAECBAgQIECgbQKCibbtiPkQIECAAAECBAgQIECAAIEOCQgmOrTZlkqAAAECBAgQIECAAAECBNomIJho246YDwECBAgQIECAAAECBAgQ6JCAYKJDm22pBAgQIECAAAECBAgQIECgbQKCibbtiPkQIECAAAECBAgQIECAAIEOCQgmOrTZlkqAAAECBAgQIECAAAECBNomIJho246YDwECBAgQIECAAAECBAgQ6JCAYKJDm22pBAgQIECAAAECBAgQIECgbQKCibbtiPkQIECAAAECBAgQIECAAIEOCQgmOrTZlkqAAAECBAgQIECAAAECBNomIJho246YDwECBAgQIECAAAECBAgQ6JCAYKJDm22pBAgQIECAAAECBAgQIECgbQKCibbtiPkQIECAAAECBAgQIECAAIEOCQgmOrTZlkqAAAECBAgQIECAAAECBNomIJho246YDwECBAgQIECAAAECBAgQ6JCAYKJDm22pBAgQIECAAAECBAgQIECgbQKCibbtiPkQIECAAAECBAgQIECAAIEOCQgmOrTZlkqAAAECBAgQIECAAAECBNomIJho246YDwECBAgQIECAAAECBAgQ6JCAYKJDm22pBAgQIECAAAECBAgQIECgbQKCibbtiPkQIECAAAECBAgQIECAAIEOCQgmOrTZlkqAAAECBAgQIECAAAECBNomIJho246YDwECBAgQIECAAAECBAgQ6JCAYKJDm22pBAgQIECAAAECBAgQIECgbQKCibbtiPkQIECAAAECBAgQIECAAIEOCQgmOrTZlkqAAAECBAgQIECAAAECBNomIJho246YD4H/396dB1023/kDr9aNdOyaFmu0ptsSpgYJsbRIKNtkKUON3WBUKhgxBCVMiCrbMIImYwg9VSFM2XusGZPgF0uIZcqS6IitEYRoW4tY+veZnKpvbp7lPlvf7s/zva/+I3Wec8699/N5fU7a0+97FgIECBAgQIAAAQIECBDoIgHBRBcNW6sECBAgQIAAAQIECBAgQCCbgGAi20TUQ4AAAQIECBAgQIAAAQIEukhAMNFFw9YqAQIECBAgQIAAAQIECBDIJiCYyDYR9RAgQIAAAQIECBAgQIAAgS4SEEx00bC1SoAAAQIECBAgQIAAAQIEsgkIJrJNRD0ECBAgQIAAAQIECBAgQKCLBAQTXTRsrRIgQIAAAQIECBAgQIAAgWwCgolsE1EPAQIECBAgQIAAAQIECBDoIgHBRBcNW6sECBAgQIAAAQIECBAgQCCbgGAi20TUQ4AAAQIECBAgQIAAAQIEukhAMNFFw9YqAQIECBAgQIAAAQIECBDIJiCYyDYR9RAgQIAAAQIECBAgQIAAgS4SEEx00bC1SoAAAQIECBAgQIAAAQIEsgkIJrJNRD0ECBAgQIAAAQIECBAgQKCLBAQTXTRsrRIgQIAAAQIECBAgQIAAgWwCgolsE1EPAQIECBAgQIAAAQIECBDoIgHBRBcNW6sECBAgQIAAAQIECBAgQCCbgGAi20TUQ4AAAQIECBAgQIAAAQIEukhAMNFFw9YqAQIECBAgQIAAAQIECBDIJiCYyDYR9RAgQIAAAQIECBAgQIAAgS4SEEx00bC1SoAAAQIECBAgQIAAAQIEsgkIJrJNRD0ECBAgQIAAAQIECBAgQKCLBAQTXTRsrRIgQIAAAQIECBAgQIAAgWwCgolsE1EPAQIECBAgQIAAAQIECBDoIgHBRBcNW6sECBAgQIAAAQIECBAgQCCbgGAi20TUQ4AAAQIECBAgQIAAAQIEukhAMNFFw9YqAQIECBAgQIAAAQIECBDIJiCYyDYR9RAgQIAAAQIECBAgQIAAgS4SEEx00bC1SoAAAQIECBAgQIAAAQIEsgkIJrJNRD0ECBAgQIAAAQIECBAgQKCLBAQTXTRsrRIgQIAAAQIECBAgQIAAgWwCgolsE1EPAQIECBAgQIAAAQIECBDoIgHBRBcNW6sECBAgQIAAAQIECBAgQCCbgGAi20TUQ4AAAQIECBAgQIAAAQIEukhAMNFFw9YqAQIECBAgQIAAAQIECBDIJiCYyDYR9RAgQIAAAQIECBAgQIAAgS4SGDfyXt97770777xz9uzZb7311rx581ZeeeUNN9xwo402Gvk79/kO8XHxQbFp3LhxEyZM6HMfKwkQIECAAAECBAgQIECAAIFRITCiYOKjjz664IILZsyY8e677/bodurUqSeddNImm2zSY/0If3z//ff32muvxx9/PN4n4o9rrrlmhG/o5QQIECBAgAABAgQIECBAgMBCFBj+pRzvvPPOgQceeP755/dOJaKfJ598cs8997zqqqvmb2+nn356k0rM37f1bgQIECBAgAABAgQIECBAgMBCERj+GRMnn3zyvffe2xS9xBJL7LvvvpMnT547d+599913yy23NOuPP/74SZMmbbrppvOlt5tuuunyyy+fL2/lTQgQIECAAAECBAgQIECAAIEMAmPirhDDqOP2228/5JBDmhdOmzbtnHPOWXLJJcv7PPTQQwcddFBzJkXcBuKOO+5YfPHFy9bhLTz99NM77rhj62s7cSnHlClTWj8ilmfNmtVjjR8JECBAgAABAgQIECBAgACB+SUwzEs5ypkLa6+99vTp01tTiahs4403jntPNCW+/vrrEUyMsNy44eVhhx02wjfxcgIECBAgQIAAAQIECBAgQCCbwHCCiRdffPHuu+9uOjnmmGPGjx/fu6sttthiu+22a9aP/E4T3/3ud5966ql4tw022ODEE0/s/XHWECBAgAABAgQIECBAgAABAqNRYDjBxMyZM5tW4zKNbbbZpr+299hjj2bTXXfd9fLLL/e324Dr49Eb1157bewWd7I499xzR35VyICfaAcCBAgQIECAAAECBAgQIEBgwQgMJ5i4/vrrm+K23XbbMWPG9Fdo67NC454U/e3Wfn083eO4445r9jnzzDPXWGON9vvbSoAAAQIECBAgQIAAAQIECIwigSEHEx9//PEzzzzTdLj55pu3aTVOcNhss82aHWbPnt1mz/42xRNJyy0249Gk5dqQ/va3ngABAgQIECBAgAABAgQIEBhdAkMOJt58883S4dSpU8tynwtxS4hm/SuvvNLnDu1XnnDCCU2iEXfTPOqoo9rvbCsBAgQIECBAgAABAgQIECAw6gSGHEy89tprpcmlllqqLPe5sOyyyzbrh3GPiXjwx8033xwvjzMvvve97y266KJ9foSVBAgQIECAAAECBAgQIECAwOgVGDfU0uPxn+UlPZ4SWtaXhWWWWaZZfumll8rKwSw8+uij8SSOZs+44eXKK688mFcNdZ8pU6YM9SX2J0CAAAECBAgQIECAAAECBOajwIjOmBh8MDGkMybiapFDDz20aTIWpk2bNh8b9lYECBAgQIAAAQIECBAgQIBAHoEhBxOLLPLnl8ybN699JwPu0PvlcXPNeAxHE2R8/vOfP+yww3rvYw0BAgQIECBAgAABAgQIECBQh8CfU4ZB9rPCCiuUPeOpGWW5z4U5c+Y061dfffU+d+i9csaMGc2zRSdMmHDWWWeNHTu29z7WECBAgAABAgQIECBAgAABAnUIjCiYePvtt9srlEd4rLTSSu33bLY+9NBDZ5xxRrN8zjnnrLjiioN5lX0IECBAgAABAgQIECBAgACBUSow5GAiTmQorZbcoazpsVDOmBjM3Svjtprl1hJHHnnkZptt1uPd/EiAAAECBAgQIECAAAECBAhUJjDkp3IsvfTSheCJJ57YYIMNyo+9Fx588MFm5WDOfXj44YfLIz9+85vfHHvssb3fMNY888wzzfqnn3667DNx4sSjjjqqz/3brJw1a1aPrZ7T0QPEjwQIECBAgAABAgQIECBAoKMCQw4mxowZM3Xq1CeffDLKuueee3bffff+6ovzKeKpn83WtdZaq7/d+lx/ww039Lm+deW777573XXXlTXDCCbKay0QIECAAAECBAgQIECAAAECC0VgyJdyRJW77bZbU+sdd9zx0Ucf9Vf3/fffXzZtv/32Zbm/hcUWW6y/TdYTIECAAAECBAgQIECAAAECVQoM+YyJUNhll11OOeWUWIhzFm666aavfOUrfdJccsklzfqdd955ueWW63Of1pVbb731j3/84wGfMHr11VdffPHF8cI4cWP69Omt72CZAAECBAgQIECAAAECBAgQGF0Cwwkm4omhcQbEf//3f0er8UTPrbbaavnll+/RdlyLEY/YaFbuuuuuPbbGVR5XXHHFL3/5y7333vtzn/tcszUuEllzzTV77Nn7x0mTJjUr4wyLwezf+x2sIUCAAAECBAgQIECAAAECBJIIDOdSjih9v/32axp4+eWX999//xdeeKH0E6c8zJw58+ijj27WRI6w5ZZblq3NQrz87LPPvuWWW/bZZ59f/OIXPbb6kQABAgQIECBAgAABAgQIEOgSgeGcMRE08SzPgw8+uLmkIm6E+cUvfjGu71hnnXXmzp179913P/7444UvrrYYO3Zs+TEWXn311ThXoqyZMWPGpptuWn60QIAAAQIECBAgQIAAAQIECHSPwDCDiQA64ogj3njjjbjjQ4MVN5voobbEEkuce+65vR/AOWHChEUXXfSDDz5o9l933XV7vNCPBAgQIECAAAECBAgQIECAQJcIDPNSjtCJcOHUU089/fTTy00fWsl22mmneJbntGnTWlc2y3ECxfHHHz9u3P9lIpMnTz7wwAN779Nmzfjx45utSy+9dJvdbCJAgAABAgQIECBAgAABAgTyC4wZ8CkYA/YQ7/DYY489//zzcY3G4osvvsoqq6y//voTJ05s/8J4zuicOXPi7In2uy3grb3P75g1a9YCrsHHESBAgAABAgQIECBAgACB7hGYD8FETViCiZqmqRcCBAgQIECAAAECBAgQyC8w/Es58vemQgIECBAgQIAAAQIECBAgQCC5gGAi+YCUR4AAAQIECBAgQIAAAQIEahYQTNQ8Xb0RIECAAAECBAgQIECAAIHkAoKJ5ANSHgECBAgQIECAAAECBAgQqFlAMFHzdPVGgAABAgQIECBAgAABAgSSCwgmkg9IeQQIECBAgAABAgQIECBAoGYBwUTN09UbAQIECBAgQIAAAQIECBBILiCYSD4g5REgQIAAAQIECBAgQIAAgZoFBBM1T1dvBAgQIECAAAECBAgQIEAguYBgIvmAlEeAAAECBAgQIECAAAECBGoWEEzUPF29ESBAgAABAgQIECBAgACB5AKCieQDUh4BAgQIECBAgAABAgQIEKhZQDBR83T1RoAAAQIECBAgQIAAAQIEkgsIJpIPSHkECBAgQIAAAQIECBAgQKBmAcFEzdPVGwECBAgQIECAAAECBAgQSC4gmEg+IOURIECAAAECBAgQIECAAIGaBQQTNU9XbwQIECBAgAABAgQIECBAILmAYCL5gJRHgAABAgQIECBAgAABAgRqFhBM1DxdvREgQIAAAQIECBAgQIAAgeQCgonkA1IeAQIECBAgQIAAAQIECBCoWUAwUfN09UaAAAECBAgQIECAAAECBJILCCaSD0h5BAgQIECAAAECBAgQIECgZgHBRM3T1RsBAgQIECBAgAABAgQIEEguIJhIPiDlESBAgAABAgQIECBAgACBmgUEEzVPV28ECBAgQIAAAQIECBAgQCC5gGAi+YCUR4AAAQIECBAgQIAAAQIEahYQTNQ8Xb0RIECAAAECBAgQIECAAIHkAoKJ5ANSHgECBAgQIECAAAECBAgQqFlAMFHzdPVGgAABAgQIECBAgAABAgSSCwgmkg9IeQQIECBAgAABAgQIECBAoGYBwUTN09UbAQIECBAgQIAAAQIECBBILiCYSD4g5REgQIAAAQIECBAgQIAAgZoFBBM1T1dvBAgQIECAAAECBAgQIEAguYBgIvmAlEeAAAECBAgQIECAAAECBGoWEEzUPF29ESBAgAABAgQIECBAgACB5AKCieQDUh4BAgQIECBAgAABAgQIEKhZQDBR83T1RoAAAQIECBAgQIAAAQIEkgsIJpIPSHkECBAgQIAAAQIECBAgQKBmAcFEzdPVGwECBAgQIECAAAECBAgQSC4gmEg+IOURIECAAAECBAgQIECAAIGaBQQTNU9XbwQIECBAgAABAgQIECBAILmAYCL5gJRHgAABAgQIECBAgAABAgRqFhBM1DxdvREgQIAAAQIECBAgQIAAgeQCgonkA1IeAQIECBAgQIAAAQIECBCoWUAwUfN09UaAAAECBAgQIECAAAECBJILCCaSD0h5BAgQIECAAAECBAgQIECgZgHBRM3T1RsBAgQIECBAgAABAgQIEEguIJhIPiDlESBAgAABAgQIECBAgACBmgUEEzVPV28ECBAgQIAAAQIECBAgQCC5gGAi+YCUR4AAAQIECBAgQIAAAQIEahYQTNQ8Xb0RIECAAAECBAgQIECAAIHkAoKJ5ANSHgECBAgQIECAAAECBAgQqFlAMFHzdPVGgAABAgQIECBAgAABAgSSCwgmkg9IeQQIECBAgAABAgQIECBAoGYBwUTN09UbAQIECBAgQIAAAQIECBBILiCYSD4g5REgQIAAAQIECBAgQIAAgZoFBBM1T1dvBAgQIECAAAECBAgQIEAguYBgIvmAlEeAAAECBAgQIECAAAECBGoWEEzUPF29ESBAgAABAgQIECBAgACB5AKCieQDUh4BAgQIECBAgAABAgQIEKhZQDBR83T1RoAAAQIECBAgQIAAAQIEkgsIJpIPSHkECBAgQIAAAQIECBAgQKBmAcFEzdPVGwECBAgQIECAAAECBAgQSC4gmEg+IOURIECAAAECBAgQIECAAIGaBQQTNU9XbwQIECBAgAABAgQIECBAILmAYCL5gJRHgAABAgQIECBAgAABAgRqFhBM1DxdvREgQIAAAQIECBAgQIAAgeQCgonkA1IeAQIECBAgQIAAAQIECBCoWUAwUfN09UaAAAECBAgQIECAAAECBJILCCaSD0h5BAgQIECAAAECBAgQIECgZgHBRM3T1RsBAgQIECBAgAABAgQIEEguIJhIPiDlESBAgAABAgQIECBAgACBmgUEEzVPV28ECBAgQIAAAQIECBAgQCC5gGAi+YCUR4AAAQIECBAgQIAAAQIEahYQTNQ8Xb0RIECAAAECBAgQIECAAIHkAoKJ5ANSHgECBAgQIECAAAECBAgQqFlAMFHzdPVGgAABAgQIECBAgAABAgSSCwgmkg9IeQQIECBAgAABAgQIECBAoGYBwUTN09UbAQIECBAgQIAAAQIECBBILiCYSD4g5REgQIAAAQIECBAgQIAAgZoFBBM1T1dvBAgQIECAAAECBAgQIEAguYBgIvmAlEeAAAECBAgQIECAAAECBGoWEEzUPF29ESBAgAABAgQIECBAgACB5AKCieQDUh4BAgQIECBAgAABAgQIEKhZQDBR83T1RoAAAQIECBAgQIAAAQIEkgsIJpIPSHkECBAgQIAAAQIECBAgQKBmAcFEzdPVGwECBAgQIECAAAECBAgQSC4gmEg+IOURIECAAAECBAgQIECAAIGaBQQTNU9XbwQIECBAgAABAgQIECBAILmAYCL5gJRHgAABAgQIECBAgAABAgRqFhBM1DxdvREgQIAAAQIECBAgQIAAgeQCgonkA1IeAQIECBAgQIAAAQIECBCoWUAwUfN09UaAAAECBAgQIECAAAECBJILCCaSD0h5BAgQIECAAAECBAgQIECgZgHBRM3T1RsBAgQIECBAgAABAgQIEEguIJhIPiDlESBAgAABAgQIECBAgACBmgUEEzVPV28ECBAgQIAAAQIECBAgQCC5gGAi+YCUR4AAAQIECBAgQIAAAQIEahYQTNQ8Xb0RIECAAAECBAgQIECAAIHkAoKJ5ANSHgECBAgQIECAAAECBAgQqFlAMFHzdPVGgAABAgQIECBAgAABAgSSCwgmkg9IeQQIECBAgAABAgQIECBAoGYBwUTN09UbAQIECBAgQIAAAQIECBBILiCYSD4g5REgQIAAAQIECBAgQIAAgZoFBBM1T1dvBAgQIECAAAECBAgQIEAguYBgIvmAlEeAAAECBAgQIECAAAECBGoWEEzUPF29ESBAgAABAgQIECBAgACB5AKCieQDUh4BAgQIECBAgAABAgQIEKhZQDBR83T1RoAAAQIECBAgQIAAAQIEkgsIJpIPSHkECBAgQIAAAQIECBAgQKBmAcFEzdPVGwECBAgQIECAAAECBAgQSC4gmEg+IOURIECAAAECBAgQIECAAIGaBQQTNU9XbwQIECBAgAABAgQIECBAILmAYCL5gJRHgAABAgQIECBAgAABAgRqFhBM1DxdvREgQIAAAQIECBAgQIAAgeQCgonkA1IeAQIECBAgQIAAAQIECBCoWUAwUfN09UaAAAECBAgQIECAAAECBJILCCaSD0h5BAgQIECAAAECBAgQIECgZgHBRM3T1RsBAgQIECBAgAABAgQIEEguIJhIPiDlESBAgAABAgQIECBAgACBmgUEEzVPV28ECBAgQIAAAQIECBAgQCC5gGAi+YCUR4AAAQIECBAgQIAAAQIEahYQTNQ8Xb0RIECAAAECBAgQIECAAIHkAoKJ5ANSHgECBAgQIECAAAECBAgQqFlAMFHzdPVGgAABAgQIECBAgAABAgSSCwgmkg9IeQQIECBAgAABAgQIECBAoGYBwUTN09UbAQIECBAgQIAAAQIECBBILiCYSD4g5REgQIAAAQIECBAgQIAAgZoFBBM1T1dvBAgQIECAAAECBAgQIEAguYBgIvmAlEeAAAECBAgQIECAAAECBGoWEEzUPF29ESBAgAABAgQIECBAgACB5AKCieQDUh4BAgQIECBAgAABAgQIEKhZQDBR83T1RoAAAQIECBAgQIAAAQIEkgsIJpIPSHkECBAgQIAAAQIECBAgQKBmAcFEzdPVGwECBAgQIECAAAECBAgQSC4gmEg+IOURIECAAAECBAgQIECAAIGaBQQTNU9XbwQIECBAgAABAgQIECBAILmAYCL5gJRHgAABAgQIECBAgAABAgRqFhBM1DxdvREgQIAAAQIECBAgQIAAgeQCgonkA1IeAQIECBAgQIAAAQIECBCoWUAwUfN09UaAAAECBAgQIECAAAECBJILCCaSD0h5BAgQIECAAAECBAgQIECgZgHBRM3T1RsBAgQIECBAgAABAgQIEEguIJhIPiDlESBAgAABAgQIECBAgACBmgUEEzVPV28ECBAgQIAAAQIECBAgQCC5gGAi+YCUR4AAAQIECBAgQIAAAQIEahYQTNQ8Xb0RIECAAAECBAgQIECAAIHkAoKJ5ANSHgECBAgQIECAAAECBAgQqFlAMFHzdPVGgAABAgQIECBAgAABAgSSCwgmkg9IeQQIECBAgAABAgQIECBAoGYBwUTN09UbAQIECBAgQIAAAQIECBBILiCYSD4g5REgQIAAAQIECBAgQIAAgZoFBBM1T1dvBAgQIECAAAECBAgQIEAguYBgIvmAlEeAAAECBAgQIECAAAECBGoWEEzUPF29ESBAgAABAgQIECBAgACB5AKCieQDUh4BAgQIECBAgAABAgQIEKhZQDBR83T1RoAAAQIECBAgQIAAAQIEkgsIJpIPSHkECBAgQIAAAQIECBAgQKBmAcFEzdPVGwECBAgQIECAAAECBAgQSC4gmEg+IOURIECAAAECBAgQIECAAIGaBQQTNU9XbwQIECBAgAABAgQIECBAILmAYCL5gJRHgAABAgQIECBAgAABAgRqFhBM1DxdvREgQIAAAQIECBAgQIAAgeQCgonkA1IeAQIECBAgQIAAAQIECBCoWUAwUfN09UaAAAECBAgQIECAAAECBJILCCaSD0h5BAgQIECAAAECBAgQIECgZgHBRM3T1RsBAgQIECBAgAABAgQIEEguIJhIPiDlESBAgAABAgQIECBAgACBmgUEEzVPV28ECBAgQIAAAQIECBAgQCC5gGAi+YCUR4AAAQIECBAgQIAAAQIEahYQTNQ8Xb0RIECAAAECBAgQIECAAIHkAoKJ5ANSHgECBAgQIECAAAECBAgQqFlAMFHzdPVGgAABAgQIECBAgAABAgSSCwgmkg9IeQQIECBAgAABAgQIECBAoGYBwUTN09UbAQIECBAgQIAAAQIECBBILiCYSD4g5REgQIAAAQIECBAgQIAAgZoFBBM1T1dvBAgQIECAAAECBAgQIEAguYBgIvmAlEeAAAECBAgQIECAAAECBGoWEEzUPF29ESBAgAABAgQIECBAgACB5AKCieQDUh4BAgQIECBAgAABAgQIEKhZQDBR83T1RoAAAQIECBAgQIAAAQIEkgsIJpIPSHkECBAgQIAAAQIECBAgQKBmAcFEzdPVGwECBAgQIECAAAECBAgQSC4gmEg+IOURIECAAAECBAgQIECAAIGaBQQTNU9XbwQIECBAgAABAgQIECBAILmAYCL5gJRHgAABAgQIECBAgAABAgRqFhBM1DxdvREgQIAAAQIECBAgQIAAgeQCgonkA1IeAQIECBAgQIAAAQIECBCoWUAwUfN09UaAAAECBAgQIECAAAECBJILCCaSD0h5BAgQIECAAAECBAgQIECgZgHBRM3T1RsBAgQIECBAgAABAgQIEEguIJhIPiDlESBAgAABAgQIECBAgACBmgUEEzVPV28ECBAgQIAAAQIECBAgQCC5gGAi+YCUR4AAAQIECBAgQIAAAQIEahYQTNQ8Xb0RIECAAAECBAgQIECAAIHkAoKJ5ANSHgECBAgQIECAAAECBAgQqFlAMFHzdPVGgAABAgQIECBAgAABAgSSCwgmkg9IeQQIECBAgAABAgQIECBAoGYBwUTN09UbAQIECBAgQIAAAQIECBBILiCYSD4g5REgQIAAAQIECBAgQIAAgZoFBBM1T1dvBAgQIECAAAECBAgQIEAguYBgIvmAlEeAAAECBAgQIECAAAECBGoWEEzUPF29ESBAgAABAgQIECBAgACB5AKCieQDUh4BAgQIECBAgAABAgQIEKhZQDBR83T1RoAAAQIECBAgQIAAAQIEkguMG3l977333p133jl79uy33npr3rx5K6+88oYbbrjRRhuN/J3jHT766KPnn39+1p/+xPLEiRMnTZq09tprr7jiivPl/b0JAQIECBAgQIAAAQIECBAgsBAFRhRMRFJwwQUXzJgx49133+3Rw9SpU0866aRNNtmkx/oh/fjTn/70yCOP7P3m8SYHHHDAIYccsswyywzpDe1MgAABAgQIECBAgAABAgQIpBIYE+c4DK+gd95559BDD7333nvbvPyUU07Zfffd2+zQ36a5c+eeccYZV1xxRX87xPollljioosu+uxnP9tmn6FumjJlSo+XxLkaPdb4kQABAgQIECBAgAABAgQIEJhfAsMPJo455pjrr7++qSMygn333Xfy5MkRKNx333233HJLqe9HP/rRpptuWn4c5EKPN995550jMvj444/ffPPNePNnnnmmeZ8JEybcdNNNyy+//CDfdsDdBBMDEtmBAAECBAgQIECAAAECBAjMR4FhBhO33357XEnR1DFt2rRzzjlnySWXLGU99NBDBx10UHMJRmQHd9xxx+KLL162DrjwwAMP7L333s1uG2ywwfnnn7/qqquWV3344Yc//OEPTzvttGbNdttt9/3vf79sHeGCYGKEgF5OgAABAgQIECBAgAABAgSGJDDMp3JcfvnlzcfEfSinT5/emkrE+o033jjuPdHs8Prrr0cw0SwP5n8jdzjxxBObPeNEjMggWlOJWD9u3Li4wcSee+7Z7BMRyZw5cwbzzvYhQIAAAQIECBAgQIAAAQIEsgkMJ5h48cUX77777qaTuOZi/PjxvbvaYost4lyGZv1VV13Ve4f+1jzxxBNPPfVUs/Xoo4/uEXmUV33jG98oy08++WRZtkCAAAECBAgQIECAAAECBAiMIoHhBBMzZ85sOozLNLbZZpv+ut1jjz2aTXfdddfLL7/c32491pf7R8T63XbbrcfW8uNKK60U51M0P/7qV78q6y0QIECAAAECBAgQIECAAAECo0hgOMFEuefltttuO2bMmP66bX1WaFxw0d9uPdY/++yzzZpJkyYttthiPbaWH+NGmOUxonH1R1lvgQABAgQIECBAgAABAgQIEBhFAuOGWmskAuWkhs0337zNy+OMhs022+znP/957DN79uw2e7ZuKm8ez/hoXd9jueQXsX699dbrsXWQP/a+1eUgX2g3AgQIECBAgAABAgQIECBAYL4IDDmYiAd2lg+eOnVqWe5zIZ6p0QQTr7zySp879F553HHH7bfffrE+rhPpvbWsaX0i6brrrlvWWyBAgAABAgQIECBAgAABAgRGkcCQg4nXXnuttLfUUkuV5T4Xll122Wb94O8xETePiD99vltZGXe7PO+885ofIxxZfvnlyyYLBAgQIECAAAECBAgQIECAwCgSGPI9JuLxn6W9/h6ZUXZYZpllmuWXXnqprBzhwhtvvPGtb32rvMmpp55ali0QIECAAAECBAgQIECAAAECo0tgyMFE6xkTgw8mBn/GRHu+5557Lh7VUZ4P+vWvf33DDTds/xJbCRAgQIAAAQIECBAgQIAAgbQCQw4mFlnkzy+ZN29e+8YG3KH9y3tsvfXWW7/2ta+V+2huueWWhx56aI99/EiAAAECBAgQIECAAAECBAiMIoEh32NihRVWKO2988475WKNsrJ1Yc6cOc2Pq6++euv6oS7/4Q9/+Jd/+ZfLLrusvDDOmzj55JPHjRty/eUdYmHWrFmtP8ay53T0APEjAQIECBAgQIAAAQIECBDoqMCQ/2HfGky8/fbb7YOJ8giPAe9n2abJeIDo4YcfXi7fiD1POumkPffcc8yYMW1eZRMBAgQIECBAgAABAgQIECCQX+DP12UMstbWp3iW3KG/15YzJlZeeeX+9mm//sYbb9xhhx1KKrH22mvHmr322ksq0d7NVgIECBAgQIAAAQIECBAgMCoEhhxMLL300qWxJ554oiz3ufDggw8261dcccU+d2iz8uOPPz7ttNOOPPLIss8+++xz7bXXutqigFggQIAAAQIECBAgQIAAAQKjXWDIwUScqjB16tSm7XvuuadN/3E+xaOPPtrssNZaa7XZs/emjz766J//+Z9nzJjRbFpiiSX+7d/+7Tvf+c4nPvGJ3jtbQ4AAAQIECBAgQIAAAQIECIxSgSEHE9Fn3Hiy6faOO+6IBKG/zu+///6yafvtty/Lg1mIW11eddVVzZ5x48wbbrjhS1/60mBeaB8CBAgQIECAAAECBAgQIEBgFAkMJ5jYZZddmg7ffffdm266qb9uL7nkkmbTzjvvvNxyy/W3W+/1jzzySDlXYtKkSVdeeeUaa6zRezdrCBAgQIAAAQIECBAgQIAAgdEuMJxgIh7MUc6AOOuss37/+9/3VohzHB566KFm/a677tpjh7jK48ILL/zmN7/ZelZFs88HH3zw7W9/u1mOKzguuuiiYdyfosfH+ZEAAQIECBAgQIAAAQIECBDIKTCcYCI62W+//Zp+Xn755f333/+FF14o7c2bN2/mzJlHH310syZOedhyyy3L1mYhXn722WffcsstcT/LcoPMZtNtt9321FNPNcsHH3zwxIkT3xvoz4cfftjj/f1IgAABAgQIECBAgAABAgQIjAqBMZEjDK/QM8888+KLLy6vjes71llnnblz5959992PP/54WR9P9+zxHI1XX311q622KjvstNNO5557bvnx9NNPv/TSS8uPg1mI/KLkIIPZv80+PUqNPWfNmtVmf5sIECBAgAABAgQIECBAgACBkQiMG/aLjzjiiDfeeOPqq69u3qH3zSbiQoxIHHr/U3/ChAmLLrpoXLLRvHC99dZrraE11Ghdb5kAAQIECBAgQIAAAQIECBCoT2CYl3IERIQLp556apzgEBdr9HaJ8yCuu+66adOm9d40duzY448/fty4/8tEJk+evO+++7buU67jaF3Zfnn8+PHtd7CVAAECBAgQIECAAAECBAgQyCkw/Es5Sj9xMchjjz32/PPPxzUaiy+++CqrrLL++uvHvSHKDn0uxHNG58yZE2dP9Ll1Ya3sfX6HSzkW1ix8LgECBAgQIECAAAECBAh0g8B8CCZqYhJM1DRNvRAgQIAAAQIECBAgQIBAfoHhX8qRvzcVEiBAgAABAgQIECBAgAABAskFBBPJB6Q8AgQIECBAgAABAgQIECBQs4Bgoubp6o0AAQIECBAgQIAAAQIECCQXEEwkH5DyCBAgQIAAAQIECBAgQIBAzQKCiZqnqzcCBAgQIECAAAECBAgQIJBcQDCRfEDKI0CAAAECBAgQIECAAAECNQsIJmqert4IECBAgAABAgQIECBAgEByAcFE8gEpjwABAgQIECBAgAABAgQI1CwgmKh5unojQIAAAQIECBAgQIAAAQLJBQQTyQekPAIECBAgQIAAAQIECBAgULOAYKLm6eqNAAECBAgQIECAAAECBAgkFxBMJB+Q8ggQIECAAAECBAgQIECAQM0Cgomap6s3AgQIECBAgAABAgQIECCQXEAwkXxAyiNAgAABAgQIECBAgAABAjULCCZqnq7eCBAgQIAAAQIECBAgQIBAcgHBRPIBKY8AAQIECBAgQIAAAQIECNQsIJioebp6I0CAAAECBAgQIECAAAECyQUEE8kHpDwCBAgQIECAAAECBAgQIFCzgGCi5unqjQABAgQIECBAgAABAgQIJBcQTCQfkPIIECBAgAABAgSz3SwrAAAsQklEQVQIECBAgEDNAoKJmqerNwIECBAgQIAAAQIECBAgkFxAMJF8QMojQIAAAQIECBAgQIAAAQI1Cwgmap6u3ggQIECAAAECBAgQIECAQHIBwUTyASmPAAECBAgQIECAAAECBAjULCCYqHm6eiNAgAABAgQIECBAgAABAskFBBPJB6Q8AgQIECBAgAABAgQIECBQs4Bgoubp6o0AAQIECBAgQIAAAQIECCQXEEwkH5DyCBAgQIAAAQIECBAgQIBAzQKCiZqnqzcCBAgQIECAAAECBAgQIJBcQDCRfEDKI0CAAAECBAgQIECAAAECNQsIJmqert4IECBAgAABAgQIECBAgEByAcFE8gEpjwABAgQIECBAgAABAgQI1CwgmKh5unojQIAAAQIECBAgQIAAAQLJBQQTyQekPAIECBAgQIAAAQIECBAgULOAYKLm6eqNAAECBAgQIECAAAECBAgkFxBMJB+Q8ggQIECAAAECBAgQIECAQM0Cgomap6s3AgQIECBAgAABAgQIECCQXEAwkXxAyiNAgAABAgQIECBAgAABAjULCCZqnq7eCBAgQIAAAQIECBAgQIBAcgHBRPIBKY8AAQIECBAgQIAAAQIECNQsIJioebp6I0CAAAECBAgQIECAAAECyQUEE8kHpDwCBAgQIECAAAECBAgQIFCzgGCi5unqjQABAgQIECBAgAABAgQIJBcQTCQfkPIIECBAgAABAgQIECBAgEDNAoKJmqerNwIECBAgQIAAAQIECBAgkFxAMJF8QMojQIAAAQIECBAgQIAAAQI1Cwgmap6u3ggQIECAAAECBAgQIECAQHIBwUTyASmPAAECBAgQIECAAAECBAjULCCYqHm6eiNAgAABAgQIECBAgAABAskFBBPJB6Q8AgQIECBAgAABAgQIECBQs4Bgoubp6o0AAQIECBAgQIAAAQIECCQXEEwkH5DyCBAgQIAAAQIECBAgQIBAzQKCiZqnqzcCBAgQIECAAAECBAgQIJBcQDCRfEDKI0CAAAECBAgQIECAAAECNQsIJmqert4IECBAgAABAgQIECBAgEByAcFE8gEpjwABAgQIECBAgAABAgQI1CwgmKh5unojQIAAAQIECBAgQIAAAQLJBQQTyQekPAIECBAgQIAAAQIECBAgULOAYKLm6eqNAAECBAgQIECAAAECBAgkFxBMJB+Q8ggQIECAAAECBAgQIECAQM0Cgomap6s3AgQIECBAgAABAgQIECCQXEAwkXxAyiNAgAABAgQIECBAgAABAjULCCZqnq7eCBAgQIAAAQIECBAgQIBAcgHBRPIBKY8AAQIECBAgQIAAAQIECNQsIJioebp6I0CAAAECBAgQIECAAAECyQUEE8kHpDwCBAgQIECAAAECBAgQIFCzgGCi5unqjQABAgQIECBAgAABAgQIJBcQTCQfkPIIECBAgAABAgQIECBAgEDNAoKJmqerNwIECBAgQIAAAQIECBAgkFxAMJF8QMojQIAAAQIECBAgQIAAAQI1Cwgmap6u3ggQIECAAAECBAgQIECAQHIBwUTyASmPAAECBAgQIECAAAECBAjULCCYqHm6eiNAgAABAgQIECBAgAABAskFBBPJB6Q8AgQIECBAgAABAgQIECBQs4Bgoubp6o0AAQIECBAgQIAAAQIECCQXEEwkH5DyCBAgQIAAAQIECBAgQIBAzQKCiZqnqzcCBAgQIECAAAECBAgQIJBcQDCRfEDKI0CAAAECBAgQIECAAAECNQsIJmqert4IECBAgAABAgQIECBAgEByAcFE8gEpjwABAgQIECBAgAABAgQI1CwgmKh5unojQIAAAQIECBAgQIAAAQLJBQQTyQekPAIECBAgQIAAAQIECBAgULOAYKLm6eqNAAECBAgQIECAAAECBAgkFxBMJB+Q8ggQIECAAAECBAgQIECAQM0Cgomap6s3AgQIECBAgAABAgQIECCQXEAwkXxAyiNAgAABAgQIECBAgAABAjULCCZqnq7eCBAgQIAAAQIECBAgQIBAcgHBRPIBKY8AAQIECBAgQIAAAQIECNQsIJioebp6I0CAAAECBAgQIECAAAECyQUEE8kHpDwCBAgQIECAAAECBAgQIFCzgGCi5unqjQABAgQIECBAgAABAgQIJBcQTCQfkPIIECBAgAABAgQIECBAgEDNAoKJmqerNwIECBAgQIAAAQIECBAgkFxAMJF8QMojQIAAAQIECBAgQIAAAQI1Cwgmap6u3ggQIECAAAECBAgQIECAQHIBwUTyASmPAAECBAgQIECAAAECBAjULCCYqHm6eiNAgAABAgQIECBAgAABAskFBBPJB6Q8AgQIECBAgAABAgQIECBQs4Bgoubp6o0AAQIECBAgQIAAAQIECCQXEEwkH5DyCBAgQIAAAQIECBAgQIBAzQKCiZqnqzcCBAgQIECAAAECBAgQIJBcQDCRfEDKI0CAAAECBAgQIECAAAECNQsIJmqert4IECBAgAABAgQIECBAgEByAcFE8gEpjwABAgQIECBAgAABAgQI1CwgmKh5unojQIAAAQIECBAgQIAAAQLJBQQTyQekPAIECBAgQIAAAQIECBAgULOAYKLm6eqNAAECBAgQIECAAAECBAgkFxBMJB+Q8ggQIECAAAECBAgQIECAQM0Cgomap6s3AgQIECBAgAABAgQIECCQXEAwkXxAyiNAgAABAgQIECBAgAABAjULCCZqnq7eCBAgQIAAAQIECBAgQIBAcgHBRPIBKY8AAQIECBAgQIAAAQIECNQsIJioebp6I0CAAAECBAgQIECAAAECyQUEE8kHpDwCBAgQIECAAAECBAgQIFCzgGCi5unqjQABAgQIECBAgAABAgQIJBcQTCQfkPIIECBAgAABAgQIECBAgEDNAoKJmqerNwIECBAgQIAAAQIECBAgkFxAMJF8QMojQIAAAQIECBAgQIAAAQI1Cwgmap6u3ggQIECAAAECBAgQIECAQHIBwUTyASmPAAECBAgQIECAAAECBAjULCCYqHm6eiNAgAABAgQIECBAgAABAskFBBPJB6Q8AgQIECBAgAABAgQIECBQs4Bgoubp6o0AAQIECBAgQIAAAQIECCQXEEwkH5DyCBAgQIAAAQIECBAgQIBAzQKCiZqnqzcCBAgQIECAAAECBAgQIJBcQDCRfEDKI0CAAAECBAgQIECAAAECNQsIJmqert4IECBAgAABAgQIECBAgEByAcFE8gEpjwABAgQIECBAgAABAgQI1CwgmKh5unojQIAAAQIECBAgQIAAAQLJBQQTyQekPAIECBAgQIAAAQIECBAgULOAYKLm6eqNAAECBAgQIECAAAECBAgkFxBMJB+Q8ggQIECAAAECBAgQIECAQM0Cgomap6s3AgQIECBAgAABAgQIECCQXEAwkXxAyiNAgAABAgQIECBAgAABAjULCCZqnq7eCBAgQIAAAQIECBAgQIBAcgHBRPIBKY8AAQIECBAgQIAAAQIECNQsIJioebp6I0CAAAECBAgQIECAAAECyQUEE8kHpDwCBAgQIECAAAECBAgQIFCzgGCi5unqjQABAgQIECBAgAABAgQIJBcQTCQfkPIIECBAgAABAgQIECBAgEDNAoKJmqerNwIECBAgQIAAAQIECBAgkFxAMJF8QMojQIAAAQIECBAgQIAAAQI1Cwgmap6u3ggQIECAAAECBAgQIECAQHIBwUTyASmPAAECBAgQIECAAAECBAjULCCYqHm6eiNAgAABAgQIECBAgAABAskFBBPJB6Q8AgQIECBAgAABAgQIECBQs4Bgoubp6o0AAQIECBAgQIAAAQIECCQXEEwkH5DyCBAgQIAAAQIECBAgQIBAzQKCiZqnqzcCBAgQIECAAAECBAgQIJBcQDCRfEDKI0CAAAECBAgQIECAAAECNQsIJmqert4IECBAgAABAgQIECBAgEByAcFE8gEpjwABAgQIECBAgAABAgQI1CwgmKh5unojQIAAAQIECBAgQIAAAQLJBQQTyQekPAIECBAgQIAAAQIECBAgULOAYKLm6eqNAAECBAgQIECAAAECBAgkFxBMJB+Q8ggQIECAAAECBAgQIECAQM0Cgomap6s3AgQIECBAgAABAgQIECCQXEAwkXxAyiNAgAABAgQIECBAgAABAjULCCZqnq7eCBAgQIAAAQIECBAgQIBAcgHBRPIBKY8AAQIECBAgQIAAAQIECNQsIJioebp6I0CAAAECBAgQIECAAAECyQUEE8kHpDwCBAgQIECAAAECBAgQIFCzgGCi5unqjQABAgQIECBAgAABAgQIJBcQTCQfkPIIECBAgAABAgQIECBAgEDNAoKJmqerNwIECBAgQIAAAQIECBAgkFxAMJF8QMojQIAAAQIECBAgQIAAAQI1Cwgmap6u3ggQIECAAAECBAgQIECAQHIBwUTyASmPAAECBAgQIECAAAECBAjULCCYqHm6eiNAgAABAgQIECBAgAABAskFBBPJB6Q8AgQIECBAgAABAgQIECBQs4Bgoubp6o0AAQIECBAgQIAAAQIECCQXEEwkH5DyCBAgQIAAAQIECBAgQIBAzQKCiZqnqzcCBAgQIECAAAECBAgQIJBcQDCRfEDKI0CAAAECBAgQIECAAAECNQsIJmqert4IECBAgAABAgQIECBAgEByAcFE8gEpjwABAgQIECBAgAABAgQI1CwgmKh5unojQIAAAQIECBAgQIAAAQLJBQQTyQekPAIECBAgQIAAAQIECBAgULOAYKLm6eqNAAECBAgQIECAAAECBAgkFxBMJB+Q8ggQIECAAAECBAgQIECAQM0Cgomap6s3AgQIECBAgAABAgQIECCQXEAwkXxAyiNAgAABAgQIECBAgAABAjULCCZqnq7eCBAgQIAAAQIECBAgQIBAcgHBRPIBKY8AAQIECBAgQIAAAQIECNQsIJioebp6I0CAAAECBAgQIECAAAECyQUEE8kHpDwCBAgQIECAAAECBAgQIFCzgGCi5unqjQABAgQIECBAgAABAgQIJBcQTCQfkPIIECBAgAABAgQIECBAgEDNAoKJmqerNwIECBAgQIAAAQIECBAgkFxAMJF8QMojQIAAAQIECBAgQIAAAQI1Cwgmap6u3ggQIECAAAECBAgQIECAQHIBwUTyASmPAAECBAgQIECAAAECBAjULCCYqHm6eiNAgAABAgQIECBAgAABAskFBBPJB6Q8AgQIECBAgAABAgQIECBQs4Bgoubp6o0AAQIECBAgQIAAAQIECCQXEEwkH5DyCBAgQIAAAQIECBAgQIBAzQKCiZqnqzcCBAgQIECAAAECBAgQIJBcQDCRfEDKI0CAAAECBAgQIECAAAECNQsIJmqert4IECBAgAABAgQIECBAgEByAcFE8gEpjwABAgQIECBAgAABAgQI1CwgmKh5unojQIAAAQIECBAgQIAAAQILQGD69OmHH3748D5IMDE8N68iQIAAAQIECBAgQIAAAQIE/k8gUon4c+uttw4vmxBMOIwIECBAgAABAgQIECBAgACBYQo0qUTz4uFlE4KJYdJ7GQECBAgQIECAAAECBAgQ6HKB1lSioRhGNiGY6PKjSPsECBAgQIAAAQIECBAgQGCYArNmzer9yqFmE4KJ3obWECBAgAABAgQIECBAgAABAgMLxBkTO+ywQ+/9hpRNCCZ6A1pDgAABAgQIECBAgAABAgQIDEpg5NmEYGJQ0HYiQIAAAQIECBAgQIAAAQIE+hQYYTYhmOhT1UoCBAgQIECAAAECBAgQIEBgsAIjySYEE4NVth8BAgQIECBAgAABAgQIECDQn8CwswnBRH+k1hMgQIAAAQIECBAgQIAAAQJDEBheNiGYGAKxXQkQIECAAAECBAgQIECAAIE2AsPIJgQTbTxtIkCAAAECBAgQIECAAAECBIYmMNRsQjAxNF97EyBAgAABAgQIECBAgAABAu0FhpRNjJk3b177t+uqrVOmTOmqfjVLgAABAgQIECBAgAABAgQWsMCOO+543nnnlQ91xkShsECAAAECBAgQIECAAAECBAh0XGCdddZp/QzBRKuGZQIECBAgQIAAAQIECBAgQKCDAv/4pz+tHyCYaNWwTIAAAQIECBAgQIAAAQIECHRQYMyYMT3eXTDRA8SPBAgQIECAAAECBAgQIECAQKcE4u4S559/fuu7CyZaNSwTIECAAAECBAgQIECAAAECnRV48sknWz9gXOsPlnsLzJo1q/dKawjkEej9KBkHbZ7pqKS9gKO3vY+tmQUcvZmno7Y+BRy0fbJYOSoEHL2jYkx9Fhm3krjtttt6b9phhx3iYaKt650x0aphmQABAgQIECBAgAABAgQIEBipwOBTifgkwcRIub2eAAECBAgQIECAAAECBAgQKAJDSiXiVYKJQmeBAAECBAgQIECAAAECBAgQGJHAUFOJ+DDBxIjEvZgAAQIECBAgQIAAAQIECBBoBIaRSsQLBROOHwIECBAgQIAAAQIECBAgQGCkAsNLJeJTx8ybN2+kH+71BAgQIECAAAECBAgQIECAQBcLDDuVCDNnTHTxgaN1AgQIECBAgAABAgQIECAwYoGRpBLx4YKJEU/AGxAgQIAAAQIECBAgQIAAgW4V6C+V2HHHHadPnz4YFcHEYJTsQ4AAAQIECBAgQIAAAQIECPQUaJNKnHfeeT337udnwUQ/MFYTIECAAAECBAgQIECAAAECbQWmTJnSe3ucKzH4VCJeLpjobWgNAQIECBAgQIAAAQIECBAgMLBAnDERf1r3G2oqEa8VTLQCWiZAgAABAgQIECBAgAABAgSGINCaTQwjlYhPGjeET7MrAQIECBAgQIAAAQIECBAgQOAvBZqTJn79618P6QqO8h5j5s2bV36wQIAAAQIECBAgQIAAAQIECBBYkAIu5ViQ2j6LAAECBAgQIECAAAECBAgQ+AsBwcRfcPiBAAECBAgQIECAAAECBAgQWJACgokFqe2zCBAgQIAAAQIECBAgQIAAgb8QGB03v3zvvffuvPPO2bNnv/XWW3FTjJVXXnnDDTfcaKON/qIVPxCoSKCjx/xHH330/PPPz/rTn1ieOHHipEmT1l577RVXXLEiQq0sNIGOHr29u4qPi/80xPpx48ZNmDCh9w7WEBhQoNMH7RNPPPHwww//9re/XWSRRZZffvnVV199rbXWir94ByzMDgQGFOjc0fvxxx8/88wz8et3/Pnd734Xlay55pprrLFGHLr+sh1wLnboqMCrr74a/yRceumlx48f39EP8uYLUiD7zS/jX00XXHDBjBkz3n333R4uU6dOPemkkzbZZJMe6/1IYFQLdPqY/+lPf3rkkUf2/j9UoB1wwAGHHHLIMsssM6oBFb8QBTp99PZu7f33399jjz0ef/zx2BSB9TXXXNN7H2sItBHo9EH72GOPnXjiiY8++mjvGnbaaafDDz988uTJvTdZQ2AwAh09ev/3f//35JNP7vPQjdoOPPDAb3zjG35hGMyY7DN/BT788MPvfve7//mf/xlvu/XWW19yySXz9/2920IUSB1MvPPOO4ceeui9997bBuiUU07Zfffd2+xgE4FRJNDRY37u3LlnnHHGFVdc0QZkiSWWuOiiiz772c+22ccmAn0KdPTo7fMTY2X8dnL55Zc3WwUT/SlZ359Apw/aG2644eijj+7v05v1P/jBD6ZNm9Z+H1sJ9Bbo3NEbJ0rEX63tf1uIeuIXhvjucIsttuhdmzUEOiTw5ptvHnHEEXfffXfz/htvvPGVV17Zoc/ytgteIHUwccwxx1x//fUNSvz1t++++8YXC/GPq/vuu++WW24pWD/60Y823XTT8qMFAqNXoKPHfI8333nnnadMmRK/f8Tf8vF/qDhds3GL8zNvuummONl49DKqfKEI9DjAFsDf2HGg/tM//VNpVjBRKCwMUqCjB+2DDz645557lko222yzrbbaKk6Df+mll+J3myeffLLZFL/e/Nd//ddqq61W9rRAYDACnTt6//3f//1f//VfSw1xGMffrquuumpcM/Lcc8/NnDmzOUktdoijN35/+NSnPlV2tkCgQwJx4Ub8AzBOli+/r8YHCSY6pL2w3jZvMHH77bfHWeWNS3yZcM455yy55JKF6aGHHjrooIOa09Hj31F33HHH4osvXrZaIDAaBTp6zD/wwAN77713w7LBBhucf/758UtGUYrz4n74wx+edtppzZrtttvu+9//ftlqgcCAAh09evv89KeffnrHHXds3SSYaNWwPKBARw/a+CfcF7/4xddff70p49prr/3MZz5TSooz8C+77LI45bNZE3teeOGFZasFAgMKdO7ofeqpp+J7i6aA+Ev1zDPPjPuhtNYT32dElFZOBdpyyy3jguvWHSwTmL8C8dfpjTfeGCeXtUYSzUcIJuYv9UJ/t7xP5Shn58Y9+aZPn96aSoRaHIhx/ljDF//hj2BioVMqgMAIBTp3zEfuEBc5N+XF9xuRQbSmErE+7hoYN5goX+7Fbzxz5swZYTte3lUCnTt6+2SMX1MOO+ywPjdZSWCQAh09aONr5JJK/Md//EdrKhHljR07dv/99y9h8U9+8pM4LX+QZduNQAh07uj92c9+1gjHbwvxHUaPVCI2xQ1cv/rVrx533HHNbnFSfZzL3Cz7XwKdEIjLkI8//viSSsQZOvEFWyc+yHsudIGkwcSLL75YLh+Kc9X6vOFqXNUW3+s2glddddVCp1QAgZEIdPSYjxvCx3cgTXnxLUePmK+UHTeyKsvlNOOyxgKB/gQ6evT2+aFx/XNzSMdvJyV063NPKwn0KdDpgzby3+ZzjzrqqP4uwo84uNTW/nZaZTcLBEKgo0dvnC3fIEf6EE/B6w887jpcNv3qV78qyxYIdFQgTueJE3b6+0u1ox/tzReAQNJgIi5ga5qPyzS22Wab/iDKX4t33XXXyy+/3N9u1hPIL9DRY77EzOGw22679aex0korxTckzVa/Z/SnZH1vgY4evb0/Lh69ESfGx/o4XM8991zX8fUmsmZAgY4etPEkjnIR/t/+7d/2V0zcb+If/uEfvvanP0sttVR/u1lPoIdAR4/ecr7kpz/96R6f2/pjfGVYbi0Rt01p3WSZQCcE4tvoSy+9NC7t9yyYTvAmec+kwUS55+W22247ZsyY/rBanxUaJ5/3t5v1BPILdPSYf/bZZxuBePb4Yost1p9GXDhaHiMaV3/0t5v1BHoIdPTo7fFZcS5POYU4Ln6Of9r12MGPBAYj0NGDtnmOXZQRX+6tsMIKbeqJc0L/5U9/Nt988za72USgVaCjR2+50rP9F35xn5Syw4orrthanmUC81fgK1/5SlyzH/c+i/sHz9939m7ZBDIGE/Gvo/IFb/v/VMfXZXGb68Z09uzZ2XDVQ2CQAp0+5sv/oeK5Nm1KKvlF7LPeeuu12dMmAkWg00dv+aBYiOvwy02RDzzwwHI1X+s+lgkMKNDpgzaex9HUEL9Pl2LiQ3/3u9/FhXXxv2WlBQJDFej00RuP62pKivMy2tz65LbbbiuVx3ceZdkCgfkuEDcWXGWVVeb723rDhAIZg4l4eGGRmjp1alnuc6Hc/uSVV17pcwcrCeQX6PQxH98wx3Oe48+xxx7bRqP1Kbzrrrtumz1tIlAEOn30lg+KhRNOOKHJoOPXlLh0v3WTZQKDF+j0QVvu6dM8BDQO2lNPPTX+Uo3nF8R1G/G/f/3Xfx1PFrvhhhsGX7M9CTQCnT56d9111+aD4u6t8Vdu68eVETzyyCNxM8Lmxy9/+csTJ04smywQIEBg2ALjhv3Kzr3wtddeK28+4FWXyy67bLNzOaOsvNYCgdEi0OljPm4eEX/aa8QZ8uedd16zTwSCyy+/fPv9bSXQCHT66C3OcRf6m2++OX6Mc+W+973vLbroomWTBQJDEujoQVsuiIuS4hT3+GL5H//xH3uUF/v8vz/9ia1xJ1dnwvfw8WMbgY4evfG5cTTGVXLN00Djr9w777zz0EMPjdMo4kaY8TikSNliTbmWJM6VkBG3GZZNBAgMSSBjMFGesBWd9Pf4gNJkuQOKW+8UEwujTmChH/NvvPHGt771reIWX+6VZQsE2gssmKP30UcfjX+/NZXEDS/b3Cu+fbW2EgiBjh60rVdqxLM2jjjiiGIeZ/rEcqTAJbyI22M9/PDDt956a/llpuxsgUCfAh09eptPjOdxfPKTnzz99NMjhohjNe6C0mcl8czmr3/9624/3CeOlQQIDEMg46UcrWHw4IMJZ0wMY/xekkRg4R7zzz33XDyqozwfNH7P2HDDDZPIKCO/wAI4euNc4vjKrqGIhWnTpuVnUWFmgY4etK+++mrpvTndvXl8TDzqqLmkLpKIWFh99dWb3eLfmZG1lZdYINBeoKNHb/noOGF5wKv6//jHP7799tvlJRYIECAwQoGMwcQii/y5qnnz5rXvcMAd2r/cVgIZBBbiMR/f1MU1z811+0ERFz+XfwFmkFFDfoFOH71xp7e4SUoTPX/+85+P7+jym6gwuUBHD9rf//73pf34tjmeeh7Xa+y0006tHxqnTtx4443NCRSx82WXXRZPGC2vskCgjUDrgTTg78AD7tDnB8V1c/vtt9/Pf/7zsjVu6BbHcITCJVCLTRdddFHckCK+2yi7WSBAgMBIBP4cAYzkXebva1ufrdXmhsDNh5bnLbf+XTl/6/FuBDotsFCO+T/84Q8nn3zy4YcfXk4qjvMmLr744k984hOd7tf71yTQ6aN3xowZzdOg4x94Z5111tixY2vS08tCEejoQdvjTM/TTjutz1sDjh8/Pv4GLu175HmhsNBeoKNHb3x03Aa7XDcXJ/uccsopv/zlL6+77ro4r+cHP/jB//zP/8TdUeK3habIiIz32GOPuXPntq/ZVgIECAxGIHswMeBJYuV2wQPe228wHPYhsFAEWn/PWDDHfDxAdPfdd4+v6Uq/J510Uvz+MW5cxvvOlCItJBTo6NH70EMPnXHGGU3X55xzjnsEJjwARmNJHT1oW2OIOCfiC1/4Qn9EcUPBnXfeudk6a9as/naznkCrQEeP3ri9ZURpzcd96lOf+slPfhK/KvSIg+P37bgRVbn+KK5FuuSSS1ortEyAAIHhCWQMJuJrsdJMyR3Kmh4L5YwJ90LrIePHUSSwgI/5OIV4hx12KDeVWHvttWPNXnvtNWbMmFGEptQkAp07euP33XJh0ZFHHrnZZpslaVkZo12gcwdtyLTGZ5/5zGfaW5Vnope/kNvvbyuBjh69d9xxR7llW2TByy23XH/gcWVHebDo9OnT45q7/va0ngABAoMUyPjt6NJLL12qf+KJJ+LCtvJj74UHH3ywWdn6q0Dv3awhkFlggR3z8atDfP8c58YXjX322eeYY45x+UYBsTBUgc4dvXGPwHL/+d/85jfHHntsn7XF6T/N+qeffrrsE99ae4hdn1xWhkDnDtp489bna6y22mrtwcvJnnGjn7gdgHS4PZetIdDRo/epp55qkON0iXIPlP7Y/+Zv/ubaa69ttkacMeDNMvt7H+sJECDQCGQMJuI/zPEdQvPtwT333BNnkfU3rTifIp4h12xda621+tvNegLJBRbMMf/RRx995zvfueqqqxqNuHY0rtj/0pe+lBxHeckFFszRe8MNNwzoEHdLiQuhy26CiUJhoYdARw/auDdh/KOu+dq59dGhPWpofvztb3/bLEyaNCmq6nMfKwm0CnT06H322Webz1p33XVbP7TP5dZfvCNZE0z0qWQlAQKDF8h4KUdUX26rEyeVxb+m+uvn/vvvL5u23377smyBwKgTWADHfDyKvKQScbPY+JeeVGLUHSc5C+7Q0bvYYovl7FdVFQh06KBtZMoTbQe8QOPXv/5185L111+/AlUtLBiBzh295ezjATO16LSc0RbLblC1YEbvUwjULZA0mNhll10a9/gG7KabbupvBuV2O3H7qDYXwvX3cusJ5BHo9DH/yCOPlCs44qu5K6+8co011sjTvkpGtUCHjt6tt976xz/+cTxqsf2fgw8+uNGLU+1i//JnVJMqvtMCHTpom7Ljlj3Nwl133RVXpPbXS1yFdPPNNzdbB/MFdX/vY323CXTu6C0B2eOPPz7gXd5+8YtfFPm4k2tZtkCAAIHhCSQNJuKew+UMiDjbvPWp4KXP+L43btje/FhuwFO2WiAwugRGfszH7xAXXnjhN7/5zdYziRqEDz744Nvf/nazHFdwxLPHy7cio0tJtTkFOnT0xhnLa665ZuRoA/5pWOIMi9i//MlppaokAh06aJvu4l935fr8eODRH//4x95dxx1/4kFIZf12221Xli0QaC/QuaO3NSA74YQT4r4n/VXy/PPPl+d3xJ2Jl1pqqf72tJ4AAQKDFEgaTET1++23X9NDXKi5//77v/DCC6Wl+Ity5syZRx99dLMmfmfdcssty1YLBEapwAiP+Xj52WefHU8gj/tZlpvCNhTxhXO5o1V8vRz3BYxHgrX/8+GHH45SRmUvFIH5ePS2fgu3UHrxoV0i0NGD9u///u8bxjhb7e/+7u+ee+65VtVXXnnloIMOivMpmpVHHHHE5MmTW3ewTKC9wHw8euM2w+Wz1llnnfK9YPzmELcTLrdBKfvEQjxG9IADDihr9thjj7JsgQABAsMWGNMmDR32m86vF5555pkXX3xxebc4dS3+xpw7d+7dd98d55iV9fGkQ6eQFQ0Lo1pg2Mf8q6++utVWW5Xe4zle5RnjsfL000+/9NJLy9bBLER+UbK/wexvHwLz6+iNX4svuOCCwXteffXVzQlBG2644TXXXDP4F9qTQOcO2rg9VjzjNpLigvyFL3whnh4at8aMizvuvffeuFK12RQPbI4zQBdddNGypwUCgxGYX0dvPFwjvtUonxhnX375y18uDw2N9V/96lc//elPx70t4/uMuMnlAw88UG48H1v33nvvE088sbzcAoEFIFAO/jg3La5NXgCf6CMWjEDGp3KUzuM7hDfeeCN+6WzW9L7ZRJyUHv/6kkoUMQujXWDYx3w82Dx+r41LNhqB9dZbr5WiNchrXW+ZwHwUmF9Hb+u5xPOxPG9FoLdA5w7asWPHRiL8/vvvx3fLzefGzbzjT48aIkSOf9RJJXqw+HEwAvPr6G19uEZ8bjzvNr4UjLS3pA9tHooUJ26UhzQPpmb7ECBAoI3A2Lj6sc3mhbsp/rseTw1YddVV4wn2c+bM6VFM/Of8nHPO+au/+qse6/1IYPQKDPuYj2/h4v6vP/vZz+K65TglOC5dbn2iQUTL8UXHkFji/IvPfe5zQ3qJnbtcYH4dvXHdcuvRO6Bq3EEwTjmO3eKUuq997WsD7m8HAkWgowdtxA1xpudqq63W5+8wkSbHoX744YePHz++1GOBwOAFOnf0xj0sdt999/ja77HHHnvrrbf6LClOo4hT2+Lciiijzx2sJNA5gXvuuae5z+DKK69cHlLTuY/zzgtMIPWlHEUhrjeJvxzjRjtxvvriiy8ep5PFnaXiOvmygwUClQkM75iPk4cjwovfdyvT0M7oEnD0jq55qTYEOn3Qzpo16+mnn37ttdfis+LajfgT//YjT2C+CHT06I1fKl588cW40dtLL730yU9+Mr4sjKwtfg8fUnw8X9r0JgQIVC8wOoKJ6segQQIECBAgQIAAAQIECBAg0J0CeZ/K0Z3z0DUBAgQIECBAgAABAgQIEOgqAcFEV41bswQIECBAgAABAgQIECBAIJeAYCLXPFRDgAABAgQIECBAgAABAgS6SkAw0VXj1iwBAgQIECBAgAABAgQIEMglIJjINQ/VECBAgAABAgQIECBAgACBrhIQTHTVuDVLgAABAgQIECBAgAABAgRyCQgmcs1DNQQIECBAgAABAgQIECBAoKsEBBNdNW7NEiBAgAABAgQIECBAgACBXAKCiVzzUA0BAgQIECBAgAABAgQIEOgqAcFEV41bswQIECBAgAABAgQIECBAIJeAYCLXPFRDgAABAgQIECBAgAABAgS6SkAw0VXj1iwBAgQIECBAgAABAgQIEMglIJjINQ/VECBAgAABAgQIECBAgACBrhIQTHTVuDVLgAABAgQIECBAgAABAgRyCQgmcs1DNQQIECBAgAABAgQIECBAoKsEBBNdNW7NEiBAgAABAgQIECBAgACBXAKCiVzzUA0BAgQIECBAgAABAgQIEOgqAcFEV41bswQIECBAgAABAgQIECBAIJeAYCLXPFRDgAABAgQIECBAgAABAgS6SkAw0VXj1iwBAgQIECBAgAABAgQIEMglIJjINQ/VECBAgAABAgQIECBAgACBrhIQTHTVuDVLgAABAgQIECBAgAABAgRyCQgmcs1DNQQIECBAgAABAgQIECBAoKsEBBNdNW7NEiBAgAABAgQIECBAgACBXAKCiVzzUA0BAgQIECBAgAABAgQIEOgqAcFEV41bswQIECBAgAABAgQIECBAIJeAYCLXPFRDgAABAgQIECBAgAABAgS6SkAw0VXj1iwBAgQIECBAgAABAgQIEMglIJjINQ/VECBAgAABAgQIECBAgACBrhIQTHTVuDVLgAABAgQIECBAgAABAgRyCQgmcs1DNQQIECBAgAABAgQIECBAoKsEBBNdNW7NEiBAgAABAgQIECBAgACBXAKCiVzzUA0BAgQIECBAgAABAgQIEOgqAcFEV41bswQIECBAgAABAgQIECBAIJeAYCLXPFRDgAABAgQIECBAgAABAgS6SkAw0VXj1iwBAgQIECBAgAABAgQIEMglIJjINQ/VECBAgAABAgQIECBAgACBrhIQTHTVuDVLgAABAgQIECBAgAABAgRyCQgmcs1DNQQIECBAgAABAgQIECBAoKsEBBNdNW7NEiBAgAABAgQIECBAgACBXAKCiVzzUA0BAgQIECBAgAABAgQIEOgqAcFEV41bswQIECBAgAABAgQIECBAIJeAYCLXPFRDgAABAgQIECBAgAABAgS6SkAw0VXj1iwBAgQIECBAgAABAgQIEMglIJjINQ/VECBAgAABAgQIECBAgACBrhIQTHTVuDVLgAABAgQIECBAgAABAgRyCfx/Cr8HGTA7eTAAAAAASUVORK5CYII=;" vertex="1" parent="1">
                    <mxGeometry x="90" y="140" width="406" height="399.98" as="geometry"/>
                </mxCell>
                <mxCell id="6" value="" style="rounded=0;whiteSpace=wrap;html=1;fillColor=none;aspect=fixed;" vertex="1" parent="1">
                    <mxGeometry x="116" y="178" width="334" height="334" as="geometry"/>
                </mxCell>
                <mxCell id="8" value="" style="endArrow=none;dashed=1;html=1;exitX=0;exitY=1;exitDx=0;exitDy=0;entryX=1;entryY=0;entryDx=0;entryDy=0;fillColor=#d80073;strokeColor=#A50040;strokeWidth=2;" edge="1" parent="1" source="6" target="6">
                    <mxGeometry width="50" height="50" relative="1" as="geometry">
                        <mxPoint x="390" y="420" as="sourcePoint"/>
                        <mxPoint x="440" y="370" as="targetPoint"/>
                    </mxGeometry>
                </mxCell>
                <mxCell id="10" value="" style="curved=1;endArrow=none;html=1;endFill=0;exitX=0;exitY=1;exitDx=0;exitDy=0;fillColor=#1ba1e2;strokeColor=#006EAF;strokeWidth=2;" edge="1" parent="1" source="6">
                    <mxGeometry width="50" height="50" relative="1" as="geometry">
                        <mxPoint x="120" y="510" as="sourcePoint"/>
                        <mxPoint x="450" y="180" as="targetPoint"/>
                        <Array as="points">
                            <mxPoint x="120" y="200"/>
                        </Array>
                    </mxGeometry>
                </mxCell>
                <mxCell id="11" value="" style="curved=1;endArrow=none;html=1;endFill=0;exitX=0;exitY=1;exitDx=0;exitDy=0;entryX=1;entryY=0;entryDx=0;entryDy=0;fillColor=#1ba1e2;strokeColor=#006EAF;strokeWidth=2;" edge="1" parent="1" source="6" target="6">
                    <mxGeometry width="50" height="50" relative="1" as="geometry">
                        <mxPoint x="126" y="522" as="sourcePoint"/>
                        <mxPoint x="460" y="190" as="targetPoint"/>
                        <Array as="points">
                            <mxPoint x="190" y="260"/>
                        </Array>
                    </mxGeometry>
                </mxCell>
                <mxCell id="12" value="M1" style="text;html=1;strokeColor=none;fillColor=none;align=center;verticalAlign=middle;whiteSpace=wrap;rounded=0;" vertex="1" parent="1">
                    <mxGeometry x="190" y="220" width="60" height="30" as="geometry"/>
                </mxCell>
                <mxCell id="13" value="M2" style="text;html=1;strokeColor=none;fillColor=none;align=center;verticalAlign=middle;whiteSpace=wrap;rounded=0;" vertex="1" parent="1">
                    <mxGeometry x="230" y="250" width="60" height="30" as="geometry"/>
                </mxCell>
                <mxCell id="14" value="M3" style="text;html=1;strokeColor=none;fillColor=none;align=center;verticalAlign=middle;whiteSpace=wrap;rounded=0;" vertex="1" parent="1">
                    <mxGeometry x="263" y="300" width="60" height="30" as="geometry"/>
                </mxCell>
                <mxCell id="15" value="TPR" style="text;html=1;strokeColor=none;fillColor=none;align=center;verticalAlign=middle;whiteSpace=wrap;rounded=0;direction=west;horizontal=0;" vertex="1" parent="1">
                    <mxGeometry x="60" y="297.48" width="30" height="85.01" as="geometry"/>
                </mxCell>
                <mxCell id="16" value="FPR" style="text;html=1;strokeColor=none;fillColor=none;align=center;verticalAlign=middle;whiteSpace=wrap;rounded=0;" vertex="1" parent="1">
                    <mxGeometry x="263" y="530" width="60" height="30" as="geometry"/>
                </mxCell>
            </root>
        </mxGraphModel>
    </diagram>
</mxfile>